<svg width="23" height="24" viewBox="0 0 23 24" fill="none" xmlns="http://www.w3.org/2000/svg">
<path d="M11.7712 12L23.0002 0.795654L11.7397 8.34685L11.7712 12Z" fill="#043464"/>
<path d="M11.771 12L23 0.795654L15.4259 12.0314L11.771 12Z" fill="#1D6CBD"/>
<path d="M11.771 12.0001L0.541992 23.2045L11.8024 15.647L11.771 12.0001Z" fill="#043464"/>
<path d="M11.771 12L0.541992 23.2044L8.10975 11.9686L11.771 12Z" fill="#1D6CBD"/>
<path d="M11.771 12L23 23.2044L15.4259 11.9686L11.771 12Z" fill="#043464"/>
<path d="M11.7712 12.0001L23.0002 23.2045L11.7397 15.647L11.7712 12.0001Z" fill="#1D6CBD"/>
<path d="M11.771 12L0.541992 0.795654L8.10975 12.0314L11.771 12Z" fill="#043464"/>
<path d="M11.771 12L0.541992 0.795654L11.8024 8.34685L11.771 12Z" fill="#1D6CBD"/>
</svg>
