<?xml version="1.0" encoding="utf-8"?>
<!-- Generator: Adobe Illustrator 26.5.0, SVG Export Plug-In . SVG Version: 6.00 Build 0)  -->
<svg version="1.1" id="Layer_1" xmlns="http://www.w3.org/2000/svg" xmlns:xlink="http://www.w3.org/1999/xlink" x="0px" y="0px"
	 viewBox="0 0 370 370" style="enable-background:new 0 0 370 370;" xml:space="preserve">
<style type="text/css">
	.st0{fill:none;stroke:#FFFFFF;stroke-opacity:5.000000e-02;}
	.st1{fill:none;stroke:#FFFFFF;stroke-opacity:0.1;}
	.st2{fill:none;stroke:#FFFFFF;stroke-opacity:0.16;}
	.st3{fill:#003366;}
	.st4{fill:#FFFFFF;}
	.st5{fill:#DBDBDB;}
	.st6{display:none;fill:url(#SVGID_1_);}
	.st7{display:none;}
	.st8{display:inline;fill:#FFFFFF;}
	.st9{display:inline;fill:#FEFEFE;}
	.st10{display:inline;fill:#FCFCFD;}
	.st11{display:inline;fill:#FBFBFC;}
	.st12{display:inline;fill:#F9FAFA;}
	.st13{display:inline;fill:#F8F8F9;}
	.st14{display:inline;fill:#F7F7F8;}
	.st15{display:inline;fill:#F5F6F7;}
	.st16{display:inline;fill:#F4F4F6;}
	.st17{display:inline;fill:#F2F3F5;}
	.st18{display:inline;fill:#F1F2F4;}
	.st19{display:inline;fill:#EFF0F3;}
	.st20{display:inline;fill:#EEEFF1;}
	.st21{display:inline;fill:#EDEEF0;}
	.st22{display:inline;fill:#EBECEF;}
	.st23{display:inline;fill:#EAEBEE;}
	.st24{display:inline;fill:#E8EAED;}
	.st25{display:inline;fill:#E7E8EC;}
	.st26{display:inline;fill:#E6E7EB;}
	.st27{display:inline;fill:#E4E6EA;}
	.st28{display:inline;fill:#E3E4E8;}
	.st29{display:inline;fill:#E1E3E7;}
	.st30{display:inline;fill:#E0E2E6;}
	.st31{display:inline;fill:#DFE0E5;}
	.st32{display:inline;fill:#DDDFE4;}
	.st33{display:inline;fill:#DCDEE3;}
	.st34{display:inline;fill:#DADCE2;}
	.st35{display:inline;fill:#D9DBE0;}
	.st36{display:inline;fill:#D8DADF;}
	.st37{display:inline;fill:#D6D8DE;}
	.st38{display:inline;fill:#D5D7DD;}
	.st39{display:inline;fill:#D3D6DC;}
	.st40{display:inline;fill:#D2D5DB;}
	.st41{display:inline;fill:#D0D3DA;}
	.st42{display:inline;fill:#CFD2D9;}
	.st43{display:inline;fill:#CED1D7;}
	.st44{display:inline;fill:#CCCFD6;}
	.st45{display:inline;fill:#CBCED5;}
	.st46{display:inline;fill:#C9CDD4;}
	.st47{display:inline;fill:#C8CBD3;}
	.st48{display:inline;fill:#C7CAD2;}
	.st49{display:inline;fill:#C5C9D1;}
	.st50{display:inline;fill:#C4C7CF;}
	.st51{display:inline;fill:#C2C6CE;}
	.st52{display:inline;fill:#C1C5CD;}
	.st53{display:inline;fill:#C0C3CC;}
	.st54{display:inline;fill:#BEC2CB;}
	.st55{display:inline;fill:#BDC1CA;}
	.st56{display:inline;fill:#BBBFC9;}
	.st57{display:inline;fill:#BABEC8;}
	.st58{display:inline;fill:#B9BDC6;}
	.st59{display:inline;fill:#B7BBC5;}
	.st60{display:inline;fill:#B6BAC4;}
	.st61{display:inline;fill:#B4B9C3;}
	.st62{display:inline;fill:#B3B7C2;}
	.st63{display:inline;fill:#B1B6C1;}
	.st64{display:inline;fill:#B0B5C0;}
	.st65{display:inline;fill:#AFB3BF;}
	.st66{display:inline;fill:#ADB2BD;}
	.st67{display:inline;fill:#ACB1BC;}
	.st68{display:inline;fill:#AAAFBB;}
	.st69{display:inline;fill:#A9AEBA;}
	.st70{display:none;fill:url(#SVGID_00000111151413316863427680000014531499554926480563_);}
	.st71{display:none;fill:url(#SVGID_00000181769535831359019110000016612642890710760866_);}
	.st72{display:none;fill:#759FC6;}
	.st73{display:none;fill:#90C6F7;}
	.st74{display:none;fill:url(#SVGID_00000162315221419491503380000007277428344117091518_);}
	.st75{display:none;fill:url(#SVGID_00000033337233556417525960000003994756416038722713_);}
</style>
<g>
	<circle class="st0" cx="185" cy="185" r="179.5"/>
</g>
<g>
	<circle class="st1" cx="185" cy="185" r="139.5"/>
</g>
<g>
	<circle class="st2" cx="185" cy="185" r="99.5"/>
</g>
<circle class="st3" cx="181.5" cy="184.5" r="69.5"/>
<path class="st4" d="M249.7,200.2l62.5-13.8c1-0.2,1-1.7,0-1.9l-62.5-13.7c-2.3-10.4-6.9-19.9-13.2-27.9l17.9-28
	c0.6-0.9-0.5-1.9-1.3-1.3l-28,17.9c-8-6.4-17.5-11-27.9-13.2l-13.7-62.5c-0.2-1-1.7-1-1.9,0l-13.7,62.5
	c-10.4,2.3-19.9,6.9-27.9,13.2l-28-17.9c-0.9-0.6-1.9,0.5-1.3,1.3l17.9,28c-6.3,8-10.9,17.5-13.2,27.9l-62.5,13.7
	c-1,0.2-1,1.7,0,1.9l62.5,13.8c2.3,10.4,6.9,19.9,13.2,27.9l-17.9,28c-0.6,0.9,0.5,1.9,1.3,1.3l28-17.9c8,6.4,17.5,11,27.9,13.2
	l13.7,62.5c0.2,1,1.7,1,1.9,0l13.7-62.5c10.4-2.3,19.9-6.9,27.9-13.2l28,17.9c0.9,0.6,1.9-0.5,1.3-1.3l-17.9-28
	C242.9,220,247.5,210.5,249.7,200.2L249.7,200.2z M223.6,229.6c-1.9,1.8-4,3.5-6.1,5c-7,5-15.2,8.6-24,10.2c-3.6,0.7-7.2,1-11,1
	s-7.4-0.3-11-1c-8.8-1.6-17-5.2-24-10.2c-2.2-1.5-4.2-3.2-6.2-5l-4.7,3c-0.9,0.6-1.9-0.5-1.3-1.3l3-4.7c-1.8-1.9-3.5-4-5-6.2
	c-5-7-8.6-15.2-10.2-24c-0.7-3.6-1-7.2-1-11s0.3-7.4,1-11c1.6-8.8,5.2-17,10.2-24c1.5-2.2,3.2-4.2,5-6.2l-3-4.7
	c-0.6-0.9,0.5-1.9,1.3-1.3l4.7,3c1.9-1.8,4-3.5,6.2-5c7-5,15.2-8.6,24-10.2c3.6-0.7,7.2-1,11-1c3.7,0,7.4,0.3,11,1
	c8.8,1.6,17,5.2,24,10.2c2.2,1.5,4.2,3.2,6.1,5l4.7-3c0.9-0.6,1.9,0.5,1.3,1.3l-3,4.7c1.8,1.9,3.5,4,5,6.1c5,7,8.6,15.2,10.2,24
	c0.7,3.6,1,7.2,1,11c0,3.7-0.3,7.4-1,11c-1.6,8.8-5.2,17-10.2,24c-1.5,2.2-3.2,4.2-5,6.1l3,4.7c0.6,0.9-0.5,1.9-1.3,1.3L223.6,229.6
	L223.6,229.6z"/>
<path class="st5" d="M182.2,243.7l0-4.4c0.2,0,0.3,0,0.5,0v4.4C182.5,243.7,182.4,243.7,182.2,243.7L182.2,243.7z M180.9,243.7
	c-0.2,0-0.3,0-0.5,0l0.2-4.4c0.2,0,0.3,0,0.5,0L180.9,243.7z M184,243.7l-0.1-4.4c0.2,0,0.3,0,0.5,0l0.1,4.4
	C184.3,243.7,184.1,243.7,184,243.7z M179.2,243.6c-0.2,0-0.3,0-0.5,0l0.3-4.4c0.2,0,0.3,0,0.5,0L179.2,243.6L179.2,243.6z
	 M185.7,243.6l-0.2-4.4c0.2,0,0.3,0,0.5,0l0.3,4.4C186.1,243.6,185.9,243.6,185.7,243.6L185.7,243.6z M177.4,243.5
	c-0.2,0-0.3,0-0.5,0l0.4-4.4c0.2,0,0.3,0,0.5,0L177.4,243.5L177.4,243.5z M187.5,243.5l-0.4-4.4c0.2,0,0.3,0,0.5,0l0.4,4.4
	C187.9,243.4,187.7,243.5,187.5,243.5z M175.6,243.3c-0.2,0-0.3,0-0.5-0.1l0.6-4.4c0.2,0,0.3,0,0.5,0.1L175.6,243.3z M189.3,243.3
	l-0.5-4.4c0.1,0,0.3,0,0.5-0.1l0.6,4.4C189.6,243.3,189.5,243.3,189.3,243.3L189.3,243.3z M173.9,243c-0.2,0-0.3,0-0.5-0.1l0.7-4.3
	c0.2,0,0.3,0,0.5,0.1L173.9,243L173.9,243z M191,243.1l-0.6-4.4c0.2,0,0.3,0,0.5-0.1l0.7,4.3C191.4,243,191.2,243,191,243.1z
	 M172.1,242.8c-0.2,0-0.3-0.1-0.5-0.1l0.8-4.3c0.2,0,0.3,0.1,0.5,0.1L172.1,242.8L172.1,242.8z M192.8,242.8l-0.8-4.3
	c0.1,0,0.3-0.1,0.5-0.1l0.8,4.3C193.1,242.7,193,242.8,192.8,242.8L192.8,242.8z M170.4,242.4c-0.2,0-0.3-0.1-0.5-0.1l1-4.3
	c0.2,0,0.3,0.1,0.5,0.1L170.4,242.4z M194.5,242.4l-0.9-4.3c0.1,0,0.3-0.1,0.5-0.1l0.9,4.3C194.9,242.4,194.7,242.4,194.5,242.4z
	 M168.6,242c-0.2,0-0.3-0.1-0.5-0.1l1.1-4.3c0.1,0,0.3,0.1,0.5,0.1L168.6,242L168.6,242z M196.3,242l-1-4.3c0.1,0,0.3-0.1,0.5-0.1
	l1.1,4.3C196.6,242,196.4,242,196.3,242z M166.9,241.6c-0.2,0-0.3-0.1-0.5-0.1l1.2-4.2c0.1,0,0.3,0.1,0.5,0.1L166.9,241.6z
	 M198,241.6l-1.2-4.2c0.1,0,0.3-0.1,0.4-0.1l1.2,4.2C198.3,241.5,198.2,241.6,198,241.6z M165.2,241.1c-0.2,0-0.3-0.1-0.5-0.2
	l1.3-4.2c0.2,0,0.3,0.1,0.4,0.1L165.2,241.1L165.2,241.1z M199.7,241.1l-1.3-4.2c0.1,0,0.3-0.1,0.4-0.1l1.3,4.2
	C200,241,199.9,241.1,199.7,241.1L199.7,241.1z M163.5,240.5c-0.2-0.1-0.3-0.1-0.5-0.2l1.5-4.1c0.1,0.1,0.3,0.1,0.4,0.2L163.5,240.5
	L163.5,240.5z M201.4,240.6l-1.4-4.2c0.1,0,0.3-0.1,0.4-0.2l1.5,4.2C201.7,240.5,201.5,240.5,201.4,240.6L201.4,240.6z M161.9,239.9
	c-0.2-0.1-0.3-0.1-0.5-0.2l1.6-4.1c0.2,0.1,0.3,0.1,0.4,0.2L161.9,239.9L161.9,239.9z M203.1,240l-1.6-4.1c0.1-0.1,0.3-0.1,0.4-0.2
	l1.6,4.1C203.4,239.9,203.2,239.9,203.1,240L203.1,240z M160.2,239.3c-0.2-0.1-0.3-0.1-0.5-0.2l1.7-4.1c0.1,0.1,0.3,0.1,0.4,0.2
	L160.2,239.3L160.2,239.3z M204.7,239.3l-1.7-4.1c0.1-0.1,0.3-0.1,0.4-0.2l1.7,4C205,239.2,204.9,239.3,204.7,239.3L204.7,239.3z
	 M158.6,238.6c-0.2-0.1-0.3-0.1-0.5-0.2l1.8-4c0.1,0.1,0.3,0.1,0.4,0.2L158.6,238.6L158.6,238.6z M206.3,238.6l-1.8-4
	c0.1-0.1,0.3-0.1,0.4-0.2l1.8,4C206.6,238.5,206.5,238.5,206.3,238.6L206.3,238.6z M157,237.8c-0.1-0.1-0.3-0.1-0.5-0.2l2-3.9
	c0.1,0.1,0.3,0.1,0.4,0.2L157,237.8z M207.9,237.9l-1.9-4c0.1-0.1,0.3-0.1,0.4-0.2l2,3.9C208.2,237.7,208.1,237.8,207.9,237.9z
	 M155.4,237c-0.1-0.1-0.3-0.2-0.4-0.2l2.1-3.9c0.1,0.1,0.3,0.1,0.4,0.2L155.4,237z M209.5,237.1l-2-3.9c0.1-0.1,0.3-0.1,0.4-0.2
	l2.1,3.9C209.8,236.9,209.7,237,209.5,237.1L209.5,237.1z M153.8,236.1c-0.1-0.1-0.3-0.2-0.4-0.3l2.2-3.8c0.1,0.1,0.3,0.2,0.4,0.2
	L153.8,236.1L153.8,236.1z M211.1,236.2l-2.2-3.8c0.1-0.1,0.3-0.2,0.4-0.2l2.2,3.8C211.4,236,211.2,236.1,211.1,236.2L211.1,236.2z
	 M152.3,235.2c-0.1-0.1-0.3-0.2-0.4-0.3l2.3-3.7c0.1,0.1,0.3,0.2,0.4,0.2L152.3,235.2L152.3,235.2z M212.6,235.3l-2.3-3.8
	c0.1-0.1,0.3-0.2,0.4-0.2l2.3,3.7C212.9,235.1,212.7,235.2,212.6,235.3z M150.8,234.3c-0.1-0.1-0.3-0.2-0.4-0.3l2.4-3.7
	c0.1,0.1,0.3,0.2,0.4,0.3L150.8,234.3L150.8,234.3z M214.1,234.4l-2.4-3.7c0.1-0.1,0.3-0.2,0.4-0.3l2.4,3.7
	C214.4,234.2,214.2,234.3,214.1,234.4L214.1,234.4z M149.3,233.3c-0.1-0.1-0.3-0.2-0.4-0.3l2.5-3.6c0.1,0.1,0.3,0.2,0.4,0.3
	L149.3,233.3L149.3,233.3z M215.6,233.4l-2.5-3.6c0.1-0.1,0.3-0.2,0.4-0.3l2.5,3.6C215.8,233.2,215.7,233.3,215.6,233.4L215.6,233.4
	z M147.9,232.2c-0.1-0.1-0.3-0.2-0.4-0.3l2.7-3.5c0.1,0.1,0.3,0.2,0.4,0.3L147.9,232.2z M217,232.4l-2.6-3.5
	c0.1-0.1,0.3-0.2,0.4-0.3l2.6,3.5C217.3,232.2,217.1,232.3,217,232.4L217,232.4z M146.4,231.2c-0.1-0.1-0.3-0.2-0.4-0.3l2.8-3.4
	c0.1,0.1,0.2,0.2,0.4,0.3L146.4,231.2L146.4,231.2z M218.4,231.3l-2.7-3.5c0.1-0.1,0.2-0.2,0.4-0.3l2.7,3.4
	C218.7,231.1,218.6,231.2,218.4,231.3L218.4,231.3z M145.1,230.1c-0.1-0.1-0.3-0.2-0.4-0.3l2.9-3.3c0.1,0.1,0.2,0.2,0.4,0.3
	L145.1,230.1z M219.8,230.2l-2.8-3.4c0.1-0.1,0.2-0.2,0.4-0.3l2.9,3.4C220.1,230,219.9,230.1,219.8,230.2z M143.7,228.9
	c-0.1-0.1-0.3-0.2-0.4-0.3l3-3.3c0.1,0.1,0.2,0.2,0.3,0.3L143.7,228.9z M221.1,229l-2.9-3.3c0.1-0.1,0.2-0.2,0.3-0.3l3,3.3
	C221.4,228.8,221.3,228.9,221.1,229z M142.4,227.7c-0.1-0.1-0.2-0.2-0.4-0.3l3.1-3.2c0.1,0.1,0.2,0.2,0.3,0.3L142.4,227.7z
	 M222.4,227.8l-3-3.2c0.1-0.1,0.2-0.2,0.3-0.3l3,3.2C222.7,227.6,222.6,227.7,222.4,227.8L222.4,227.8z M141.2,226.4
	c-0.1-0.1-0.2-0.2-0.4-0.4l3.2-3.1c0.1,0.1,0.2,0.2,0.3,0.3L141.2,226.4L141.2,226.4z M223.7,226.6l-3.1-3.1
	c0.1-0.1,0.2-0.2,0.3-0.3l3.1,3.1C224,226.3,223.8,226.4,223.7,226.6L223.7,226.6z M139.9,225.2c-0.1-0.1-0.2-0.2-0.3-0.4l3.2-3
	c0.1,0.1,0.2,0.2,0.3,0.3L139.9,225.2L139.9,225.2z M225,225.3l-3.2-3c0.1-0.1,0.2-0.2,0.3-0.3l3.2,3
	C225.2,225.1,225.1,225.2,225,225.3z M138.7,223.8c-0.1-0.1-0.2-0.3-0.3-0.4l3.3-2.9c0.1,0.1,0.2,0.2,0.3,0.4L138.7,223.8z
	 M226.2,224l-3.3-2.9c0.1-0.1,0.2-0.2,0.3-0.4l3.3,2.9C226.4,223.7,226.3,223.9,226.2,224z M137.6,222.5c-0.1-0.1-0.2-0.3-0.3-0.4
	l3.4-2.8c0.1,0.1,0.2,0.2,0.3,0.4L137.6,222.5z M227.3,222.6l-3.4-2.8c0.1-0.1,0.2-0.2,0.3-0.4l3.4,2.8
	C227.5,222.4,227.4,222.5,227.3,222.6L227.3,222.6z M136.5,221.1c-0.1-0.1-0.2-0.3-0.3-0.4l3.5-2.7c0.1,0.1,0.2,0.3,0.3,0.4
	L136.5,221.1z M228.4,221.3l-3.5-2.7c0.1-0.1,0.2-0.2,0.3-0.4l3.5,2.7C228.6,221,228.5,221.1,228.4,221.3L228.4,221.3z M135.4,219.7
	c-0.1-0.1-0.2-0.3-0.3-0.4l3.6-2.6c0.1,0.1,0.2,0.3,0.3,0.4L135.4,219.7z M229.5,219.8l-3.6-2.6c0.1-0.1,0.2-0.3,0.3-0.4l3.6,2.6
	C229.7,219.6,229.6,219.7,229.5,219.8L229.5,219.8z M134.4,218.2c-0.1-0.1-0.2-0.3-0.3-0.4l3.7-2.5c0.1,0.1,0.2,0.3,0.3,0.4
	L134.4,218.2z M230.5,218.4l-3.6-2.5c0.1-0.1,0.2-0.3,0.3-0.4l3.6,2.5C230.7,218.1,230.6,218.2,230.5,218.4L230.5,218.4z
	 M133.4,216.8c-0.1-0.1-0.2-0.3-0.3-0.4l3.7-2.3c0.1,0.1,0.2,0.3,0.3,0.4L133.4,216.8z M231.5,216.9l-3.7-2.4
	c0.1-0.1,0.2-0.3,0.3-0.4l3.7,2.3C231.7,216.6,231.6,216.8,231.5,216.9z M132.5,215.3c-0.1-0.1-0.2-0.3-0.3-0.4l3.8-2.2
	c0.1,0.1,0.2,0.3,0.2,0.4L132.5,215.3L132.5,215.3z M232.4,215.4l-3.8-2.3c0.1-0.1,0.2-0.3,0.2-0.4l3.8,2.2
	C232.6,215.1,232.5,215.3,232.4,215.4L232.4,215.4z M131.6,213.7c-0.1-0.1-0.2-0.3-0.2-0.4l3.9-2.1c0.1,0.1,0.1,0.3,0.2,0.4
	L131.6,213.7L131.6,213.7z M233.3,213.9l-3.8-2.2c0.1-0.1,0.1-0.3,0.2-0.4l3.9,2.1C233.5,213.6,233.4,213.7,233.3,213.9L233.3,213.9
	z M130.8,212.2c-0.1-0.1-0.2-0.3-0.2-0.4l3.9-2c0.1,0.1,0.1,0.3,0.2,0.4L130.8,212.2L130.8,212.2z M234.2,212.3l-3.9-2
	c0.1-0.1,0.1-0.3,0.2-0.4l3.9,2C234.3,212,234.3,212.2,234.2,212.3L234.2,212.3z M130,210.6c-0.1-0.2-0.1-0.3-0.2-0.5l4-1.9
	c0.1,0.1,0.1,0.3,0.2,0.4L130,210.6z M235,210.7l-4-1.9c0.1-0.1,0.1-0.3,0.2-0.4l4,1.9C235.1,210.4,235,210.6,235,210.7z M129.2,209
	c-0.1-0.1-0.1-0.3-0.2-0.5l4-1.7c0.1,0.1,0.1,0.3,0.2,0.4L129.2,209z M235.7,209.1l-4-1.8c0.1-0.1,0.1-0.3,0.2-0.4l4,1.7
	C235.9,208.8,235.8,208.9,235.7,209.1L235.7,209.1z M128.5,207.3c-0.1-0.2-0.1-0.3-0.2-0.5l4.1-1.6c0.1,0.1,0.1,0.3,0.2,0.4
	L128.5,207.3L128.5,207.3z M236.4,207.5l-4.1-1.7c0.1-0.1,0.1-0.3,0.2-0.4l4.1,1.6C236.5,207.1,236.5,207.3,236.4,207.5z
	 M127.9,205.7c-0.1-0.2-0.1-0.3-0.2-0.5l4.1-1.5c0.1,0.1,0.1,0.3,0.2,0.4L127.9,205.7L127.9,205.7z M237.1,205.8l-4.1-1.5
	c0.1-0.1,0.1-0.3,0.2-0.4l4.1,1.5C237.2,205.5,237.1,205.6,237.1,205.8L237.1,205.8z M127.3,204c-0.1-0.2-0.1-0.3-0.2-0.5l4.2-1.4
	c0,0.1,0.1,0.3,0.1,0.4L127.3,204L127.3,204z M237.7,204.1l-4.2-1.4c0-0.1,0.1-0.3,0.1-0.4l4.2,1.4
	C237.8,203.8,237.7,204,237.7,204.1L237.7,204.1z M126.8,202.3c0-0.2-0.1-0.3-0.1-0.5l4.2-1.2c0,0.1,0.1,0.3,0.1,0.4L126.8,202.3z
	 M238.2,202.4l-4.2-1.3c0-0.2,0.1-0.3,0.1-0.4l4.2,1.2C238.3,202.1,238.3,202.3,238.2,202.4L238.2,202.4z M126.3,200.6
	c0-0.2-0.1-0.3-0.1-0.5l4.3-1.1c0,0.1,0.1,0.3,0.1,0.5L126.3,200.6L126.3,200.6z M238.7,200.7l-4.2-1.1c0-0.2,0.1-0.3,0.1-0.4
	l4.3,1.1C238.8,200.4,238.7,200.6,238.7,200.7L238.7,200.7z M125.8,198.9c0-0.2-0.1-0.3-0.1-0.5l4.3-1c0,0.1,0.1,0.3,0.1,0.5
	L125.8,198.9L125.8,198.9z M239.1,199l-4.3-1c0-0.2,0.1-0.3,0.1-0.5l4.3,1C239.2,198.7,239.2,198.8,239.1,199z M125.5,197.2
	c0-0.2-0.1-0.3-0.1-0.5l4.3-0.8c0,0.2,0.1,0.3,0.1,0.5L125.5,197.2L125.5,197.2z M239.5,197.3l-4.3-0.9c0-0.1,0.1-0.3,0.1-0.5
	l4.3,0.8C239.6,196.9,239.6,197.1,239.5,197.3z M125.1,195.4c0-0.2-0.1-0.3-0.1-0.5l4.3-0.7c0,0.2,0,0.3,0.1,0.5L125.1,195.4
	L125.1,195.4z M239.8,195.5l-4.3-0.7c0-0.2,0.1-0.3,0.1-0.5l4.3,0.7C239.9,195.2,239.9,195.3,239.8,195.5z M124.9,193.7
	c0-0.2,0-0.3-0.1-0.5l4.4-0.6c0,0.2,0,0.3,0.1,0.5L124.9,193.7z M240.1,193.8l-4.4-0.6c0-0.2,0-0.3,0.1-0.5l4.4,0.6
	C240.2,193.4,240.1,193.6,240.1,193.8z M124.7,191.9c0-0.2,0-0.3-0.1-0.5l4.4-0.4c0,0.2,0,0.3,0,0.5L124.7,191.9z M240.3,192
	l-4.4-0.5c0-0.2,0-0.3,0-0.5l4.4,0.5C240.4,191.7,240.4,191.8,240.3,192L240.3,192z M124.5,190.1c0-0.2,0-0.3,0-0.5l4.4-0.3
	c0,0.2,0,0.3,0,0.5L124.5,190.1L124.5,190.1z M240.5,190.2l-4.4-0.4c0-0.2,0-0.3,0-0.5l4.4,0.3C240.5,189.9,240.5,190.1,240.5,190.2
	z M124.4,188.4c0-0.2,0-0.3,0-0.5l4.4-0.2c0,0.2,0,0.3,0,0.5L124.4,188.4z M240.6,188.5l-4.4-0.2c0-0.2,0-0.3,0-0.5l4.4,0.2
	C240.7,188.1,240.6,188.3,240.6,188.5z M124.3,186.6c0-0.2,0-0.3,0-0.5l4.4,0c0,0.2,0,0.3,0,0.5L124.3,186.6z M240.7,186.7l-4.4-0.1
	c0-0.2,0-0.3,0-0.5V186l4.4,0.1v0.1C240.7,186.3,240.7,186.5,240.7,186.7z M124.3,184.8L124.3,184.8c0-0.2,0-0.4,0-0.5l4.4,0.1
	c0,0.1,0,0.3,0,0.4L124.3,184.8L124.3,184.8z M236.3,184.9c0-0.2,0-0.3,0-0.5l4.4-0.1c0,0.2,0,0.3,0,0.5L236.3,184.9L236.3,184.9z
	 M128.8,183.2l-4.4-0.2c0-0.2,0-0.3,0-0.5l4.4,0.2C128.8,182.9,128.8,183.1,128.8,183.2L128.8,183.2z M236.3,183.2
	c0-0.2,0-0.3,0-0.5l4.4-0.2c0,0.2,0,0.3,0,0.5L236.3,183.2z M128.8,181.6l-4.4-0.3c0-0.2,0-0.3,0-0.5l4.4,0.4
	C128.9,181.3,128.9,181.4,128.8,181.6z M236.2,181.6c0-0.2,0-0.3,0-0.5l4.4-0.3c0,0.2,0,0.3,0,0.5L236.2,181.6L236.2,181.6z
	 M129,179.9l-4.4-0.4c0-0.2,0-0.3,0.1-0.5l4.4,0.5C129,179.6,129,179.8,129,179.9L129,179.9z M236,180c0-0.2,0-0.3,0-0.5l4.4-0.5
	c0,0.2,0,0.3,0.1,0.5L236,180z M129.2,178.3l-4.4-0.6c0-0.2,0-0.3,0.1-0.5l4.4,0.6C129.2,178,129.2,178.1,129.2,178.3z M235.8,178.3
	c0-0.1,0-0.3-0.1-0.5l4.4-0.6c0,0.2,0,0.3,0.1,0.5L235.8,178.3z M129.4,176.7l-4.3-0.7c0-0.2,0.1-0.3,0.1-0.5l4.3,0.7
	C129.5,176.4,129.4,176.5,129.4,176.7z M235.6,176.7c0-0.2,0-0.3-0.1-0.5l4.3-0.7c0,0.2,0.1,0.3,0.1,0.5L235.6,176.7z M129.7,175.1
	l-4.3-0.8c0-0.2,0.1-0.3,0.1-0.5l4.3,0.9C129.8,174.8,129.7,174.9,129.7,175.1z M235.3,175.1c0-0.2-0.1-0.3-0.1-0.5l4.3-0.9
	c0,0.2,0.1,0.3,0.1,0.5L235.3,175.1z M130,173.5l-4.3-1c0-0.2,0.1-0.3,0.1-0.5l4.3,1C130.1,173.2,130.1,173.3,130,173.5L130,173.5z
	 M235,173.5c0-0.1-0.1-0.3-0.1-0.5l4.3-1c0,0.2,0.1,0.3,0.1,0.5L235,173.5L235,173.5z M130.4,171.9l-4.3-1.1c0-0.2,0.1-0.3,0.1-0.5
	l4.2,1.1C130.5,171.6,130.5,171.7,130.4,171.9L130.4,171.9z M234.6,171.9c0-0.2-0.1-0.3-0.1-0.5l4.2-1.1c0,0.2,0.1,0.3,0.1,0.5
	L234.6,171.9L234.6,171.9z M130.9,170.3l-4.2-1.2c0-0.2,0.1-0.3,0.1-0.5l4.2,1.3C130.9,170,130.9,170.1,130.9,170.3L130.9,170.3z
	 M234.1,170.3c0-0.2-0.1-0.3-0.1-0.4l4.2-1.3c0,0.2,0.1,0.3,0.1,0.5L234.1,170.3z M131.4,168.7l-4.2-1.4c0.1-0.2,0.1-0.3,0.2-0.5
	l4.2,1.4C131.4,168.4,131.4,168.6,131.4,168.7L131.4,168.7z M233.7,168.7c0-0.1-0.1-0.3-0.2-0.4l4.2-1.4c0.1,0.2,0.1,0.3,0.2,0.5
	L233.7,168.7L233.7,168.7z M131.9,167.2l-4.1-1.5c0.1-0.2,0.1-0.3,0.2-0.5l4.1,1.5C132,166.9,131.9,167,131.9,167.2L131.9,167.2z
	 M233.1,167.2c-0.1-0.1-0.1-0.3-0.2-0.4l4.1-1.5c0.1,0.2,0.1,0.3,0.2,0.5L233.1,167.2L233.1,167.2z M132.5,165.6l-4.1-1.6
	c0.1-0.2,0.1-0.3,0.2-0.5l4.1,1.7C132.6,165.3,132.5,165.5,132.5,165.6L132.5,165.6z M232.5,165.7c-0.1-0.1-0.1-0.3-0.2-0.4l4.1-1.7
	c0.1,0.2,0.1,0.3,0.2,0.5L232.5,165.7L232.5,165.7z M133.1,164.1l-4-1.7c0.1-0.2,0.1-0.3,0.2-0.5l4,1.8
	C133.2,163.8,133.2,164,133.1,164.1z M231.9,164.1c-0.1-0.1-0.1-0.3-0.2-0.4l4-1.8c0.1,0.2,0.1,0.3,0.2,0.5L231.9,164.1z
	 M133.8,162.6l-4-1.9c0.1-0.2,0.1-0.3,0.2-0.5l4,1.9C133.9,162.3,133.8,162.5,133.8,162.6L133.8,162.6z M231.2,162.7
	c-0.1-0.1-0.1-0.3-0.2-0.4l4-1.9c0.1,0.1,0.1,0.3,0.2,0.5L231.2,162.7z M134.5,161.1l-3.9-2c0.1-0.2,0.2-0.3,0.2-0.5l3.9,2
	C134.6,160.8,134.6,161,134.5,161.1z M230.5,161.2c-0.1-0.1-0.1-0.3-0.2-0.4l3.9-2c0.1,0.1,0.2,0.3,0.2,0.4L230.5,161.2L230.5,161.2
	z M135.3,159.7l-3.9-2.1c0.1-0.1,0.2-0.3,0.2-0.4l3.8,2.1C135.4,159.4,135.4,159.5,135.3,159.7z M229.8,159.7
	c-0.1-0.1-0.2-0.3-0.2-0.4l3.8-2.1c0.1,0.2,0.2,0.3,0.2,0.4L229.8,159.7L229.8,159.7z M136.1,158.2l-3.8-2.2
	c0.1-0.1,0.2-0.3,0.3-0.4l3.8,2.3C136.2,158,136.2,158.1,136.1,158.2L136.1,158.2z M229,158.3c-0.1-0.1-0.2-0.3-0.2-0.4l3.8-2.3
	c0.1,0.1,0.2,0.3,0.3,0.4L229,158.3L229,158.3z M136.9,156.8l-3.7-2.3c0.1-0.1,0.2-0.3,0.3-0.4l3.7,2.4
	C137.1,156.6,137,156.7,136.9,156.8z M228.1,156.9c-0.1-0.1-0.2-0.3-0.3-0.4l3.7-2.4c0.1,0.1,0.2,0.3,0.3,0.4L228.1,156.9
	L228.1,156.9z M137.8,155.5l-3.6-2.5c0.1-0.1,0.2-0.3,0.3-0.4l3.6,2.5C138,155.2,137.9,155.3,137.8,155.5L137.8,155.5z M227.2,155.5
	c-0.1-0.1-0.2-0.3-0.3-0.4l3.6-2.5c0.1,0.1,0.2,0.3,0.3,0.4L227.2,155.5z M138.8,154.1l-3.6-2.6c0.1-0.1,0.2-0.3,0.3-0.4l3.6,2.6
	C139,153.9,138.9,154,138.8,154.1z M226.3,154.2c-0.1-0.1-0.2-0.3-0.3-0.4l3.6-2.6c0.1,0.1,0.2,0.3,0.3,0.4L226.3,154.2z
	 M139.8,152.8l-3.5-2.7c0.1-0.1,0.2-0.3,0.3-0.4l3.5,2.7C139.9,152.6,139.9,152.7,139.8,152.8z M225.3,152.9
	c-0.1-0.1-0.2-0.2-0.3-0.4l3.5-2.7c0.1,0.1,0.2,0.3,0.3,0.4L225.3,152.9L225.3,152.9z M140.8,151.5l-3.4-2.8
	c0.1-0.1,0.2-0.3,0.3-0.4l3.4,2.8C141,151.3,140.9,151.4,140.8,151.5z M224.3,151.6c-0.1-0.1-0.2-0.2-0.3-0.4l3.4-2.8
	c0.1,0.1,0.2,0.3,0.3,0.4L224.3,151.6z M141.8,150.3l-3.3-2.9c0.1-0.1,0.2-0.3,0.3-0.4l3.3,2.9C142,150,141.9,150.1,141.8,150.3z
	 M223.2,150.3c-0.1-0.1-0.2-0.2-0.3-0.4l3.3-2.9c0.1,0.1,0.2,0.3,0.3,0.4L223.2,150.3L223.2,150.3z M142.9,149l-3.2-3
	c0.1-0.1,0.2-0.3,0.3-0.4l3.2,3C143.1,148.8,143,148.9,142.9,149L142.9,149z M222.2,149.1c-0.1-0.1-0.2-0.2-0.3-0.3l3.2-3
	c0.1,0.1,0.2,0.3,0.3,0.4L222.2,149.1z M144,147.9l-3.1-3.1c0.1-0.1,0.2-0.2,0.4-0.4l3.1,3.1C144.3,147.6,144.2,147.7,144,147.9
	L144,147.9z M221,147.9c-0.1-0.1-0.2-0.2-0.3-0.3l3.1-3.1c0.1,0.1,0.2,0.2,0.4,0.4L221,147.9L221,147.9z M145.2,146.7l-3-3.2
	c0.1-0.1,0.2-0.2,0.4-0.3l3,3.2C145.4,146.5,145.3,146.6,145.2,146.7L145.2,146.7z M219.9,146.8c-0.1-0.1-0.2-0.2-0.3-0.3l3-3.2
	c0.1,0.1,0.2,0.2,0.4,0.4L219.9,146.8L219.9,146.8z M146.4,145.6l-3-3.3c0.1-0.1,0.3-0.2,0.4-0.3l2.9,3.3
	C146.6,145.4,146.5,145.5,146.4,145.6z M218.7,145.6c-0.1-0.1-0.2-0.2-0.3-0.3l2.9-3.3c0.1,0.1,0.3,0.2,0.4,0.3L218.7,145.6
	L218.7,145.6z M147.6,144.5l-2.9-3.3c0.1-0.1,0.3-0.2,0.4-0.3l2.8,3.4C147.9,144.3,147.8,144.4,147.6,144.5z M217.4,144.6
	c-0.1-0.1-0.2-0.2-0.4-0.3l2.8-3.4c0.1,0.1,0.3,0.2,0.4,0.3L217.4,144.6z M148.9,143.4l-2.8-3.4c0.1-0.1,0.3-0.2,0.4-0.3l2.7,3.5
	C149.2,143.2,149,143.4,148.9,143.4L148.9,143.4z M216.2,143.5c-0.1-0.1-0.2-0.2-0.4-0.3l2.7-3.4c0.1,0.1,0.3,0.2,0.4,0.3
	L216.2,143.5L216.2,143.5z M150.2,142.4l-2.6-3.5c0.1-0.1,0.3-0.2,0.4-0.3l2.6,3.5C150.5,142.3,150.3,142.4,150.2,142.4z
	 M214.9,142.5c-0.1-0.1-0.3-0.2-0.4-0.3l2.6-3.5c0.1,0.1,0.3,0.2,0.4,0.3L214.9,142.5L214.9,142.5z M151.5,141.5l-2.5-3.6
	c0.1-0.1,0.3-0.2,0.4-0.3l2.5,3.6C151.8,141.3,151.7,141.4,151.5,141.5L151.5,141.5z M213.6,141.5c-0.1-0.1-0.3-0.2-0.4-0.3l2.5-3.6
	c0.1,0.1,0.3,0.2,0.4,0.3L213.6,141.5L213.6,141.5z M152.9,140.6l-2.4-3.7c0.1-0.1,0.3-0.2,0.4-0.3l2.4,3.7
	C153.2,140.4,153,140.5,152.9,140.6L152.9,140.6z M212.2,140.6c-0.1-0.1-0.3-0.2-0.4-0.3l2.4-3.7c0.1,0.1,0.3,0.2,0.4,0.3
	L212.2,140.6z M154.3,139.7l-2.3-3.7c0.1-0.1,0.3-0.2,0.4-0.3l2.3,3.8C154.5,139.5,154.4,139.6,154.3,139.7L154.3,139.7z
	 M210.8,139.7c-0.1-0.1-0.3-0.2-0.4-0.2l2.3-3.8c0.1,0.1,0.3,0.2,0.4,0.3L210.8,139.7L210.8,139.7z M155.7,138.8l-2.2-3.8
	c0.1-0.1,0.3-0.2,0.4-0.3l2.2,3.8C156,138.7,155.8,138.8,155.7,138.8L155.7,138.8z M209.4,138.9c-0.1-0.1-0.3-0.2-0.4-0.2l2.2-3.8
	c0.1,0.1,0.3,0.2,0.4,0.3L209.4,138.9L209.4,138.9z M157.1,138l-2.1-3.9c0.1-0.1,0.3-0.2,0.4-0.2l2,3.9
	C157.4,137.9,157.3,138,157.1,138L157.1,138z M208,138.1c-0.1-0.1-0.3-0.2-0.4-0.2l2-3.9c0.2,0.1,0.3,0.2,0.4,0.2L208,138.1
	L208,138.1z M158.6,137.3l-2-3.9c0.2-0.1,0.3-0.1,0.4-0.2l1.9,4C158.9,137.2,158.7,137.2,158.6,137.3z M206.5,137.3
	c-0.1-0.1-0.3-0.1-0.4-0.2l1.9-4c0.1,0.1,0.3,0.2,0.5,0.2L206.5,137.3L206.5,137.3z M160.1,136.6l-1.8-4c0.1-0.1,0.3-0.1,0.5-0.2
	l1.8,4C160.3,136.4,160.2,136.5,160.1,136.6L160.1,136.6z M205,136.6c-0.1-0.1-0.3-0.1-0.4-0.2l1.8-4c0.2,0.1,0.3,0.1,0.5,0.2
	L205,136.6z M161.5,135.9l-1.7-4c0.2-0.1,0.3-0.1,0.5-0.2l1.7,4.1C161.8,135.8,161.7,135.9,161.5,135.9L161.5,135.9z M203.5,135.9
	c-0.1-0.1-0.3-0.1-0.4-0.2l1.7-4.1c0.2,0.1,0.3,0.1,0.5,0.2L203.5,135.9L203.5,135.9z M163.1,135.3l-1.6-4.1
	c0.2-0.1,0.3-0.1,0.5-0.2l1.6,4.1C163.4,135.2,163.2,135.2,163.1,135.3L163.1,135.3z M202,135.3c-0.2-0.1-0.3-0.1-0.4-0.2l1.6-4.1
	c0.2,0.1,0.3,0.1,0.5,0.2L202,135.3L202,135.3z M164.6,134.7l-1.5-4.2c0.2-0.1,0.3-0.1,0.5-0.2l1.4,4.2
	C164.9,134.6,164.8,134.7,164.6,134.7L164.6,134.7z M200.5,134.7c-0.1-0.1-0.3-0.1-0.4-0.2l1.4-4.2c0.2,0.1,0.3,0.1,0.5,0.2
	L200.5,134.7L200.5,134.7z M166.2,134.2l-1.3-4.2c0.2-0.1,0.3-0.1,0.5-0.2l1.3,4.2C166.5,134.1,166.3,134.2,166.2,134.2L166.2,134.2
	z M198.9,134.2c-0.1,0-0.3-0.1-0.4-0.1l1.3-4.2c0.2,0,0.3,0.1,0.5,0.2L198.9,134.2z M167.7,133.7l-1.2-4.2c0.2,0,0.3-0.1,0.5-0.1
	l1.2,4.2C168,133.6,167.9,133.7,167.7,133.7L167.7,133.7z M197.4,133.7c-0.2,0-0.3-0.1-0.4-0.1l1.2-4.2c0.2,0,0.3,0.1,0.5,0.1
	L197.4,133.7L197.4,133.7z M169.3,133.3l-1.1-4.3c0.2,0,0.3-0.1,0.5-0.1l1,4.3C169.6,133.2,169.5,133.2,169.3,133.3z M195.8,133.3
	c-0.1,0-0.3-0.1-0.5-0.1l1-4.3c0.2,0,0.3,0.1,0.5,0.1L195.8,133.3z M170.9,132.9l-0.9-4.3c0.2,0,0.3-0.1,0.5-0.1l0.9,4.3
	C171.2,132.8,171.1,132.9,170.9,132.9L170.9,132.9z M194.2,132.9c-0.2,0-0.3-0.1-0.5-0.1l0.9-4.3c0.2,0,0.3,0.1,0.5,0.1L194.2,132.9
	L194.2,132.9z M172.5,132.6l-0.8-4.3c0.2,0,0.3-0.1,0.5-0.1l0.8,4.3C172.8,132.5,172.7,132.5,172.5,132.6L172.5,132.6z M192.6,132.6
	c-0.1,0-0.3-0.1-0.5-0.1l0.8-4.3c0.2,0,0.3,0.1,0.5,0.1L192.6,132.6L192.6,132.6z M174.1,132.3l-0.7-4.3c0.2,0,0.3-0.1,0.5-0.1
	l0.6,4.3C174.4,132.2,174.3,132.3,174.1,132.3L174.1,132.3z M190.9,132.3c-0.2,0-0.3,0-0.5-0.1l0.6-4.3c0.2,0,0.3,0,0.5,0.1
	L190.9,132.3L190.9,132.3z M175.8,132l-0.6-4.4c0.2,0,0.3,0,0.5-0.1l0.5,4.4C176.1,132,175.9,132,175.8,132z M189.3,132
	c-0.2,0-0.3,0-0.5-0.1l0.5-4.4c0.2,0,0.3,0,0.5,0.1L189.3,132L189.3,132z M177.4,131.9l-0.4-4.4c0.2,0,0.3,0,0.5,0l0.4,4.4
	C177.7,131.8,177.5,131.8,177.4,131.9L177.4,131.9z M187.7,131.9c-0.2,0-0.3,0-0.5,0l0.4-4.4c0.2,0,0.3,0,0.5,0L187.7,131.9
	L187.7,131.9z M179,131.7l-0.3-4.4c0.2,0,0.3,0,0.5,0l0.2,4.4C179.3,131.7,179.2,131.7,179,131.7L179,131.7z M186.1,131.7
	c-0.2,0-0.3,0-0.5,0l0.2-4.4c0.2,0,0.3,0,0.5,0L186.1,131.7L186.1,131.7z M180.7,131.7l-0.1-4.4c0.2,0,0.3,0,0.5,0l0.1,4.4
	C181,131.6,180.8,131.6,180.7,131.7L180.7,131.7z M184.4,131.7c-0.2,0-0.3,0-0.5,0l0.1-4.4c0.2,0,0.3,0,0.5,0L184.4,131.7z
	 M182.3,131.6l0-4.4c0.2,0,0.3,0,0.5,0l0,4.4H182.3z"/>
<path class="st5" d="M218.6,185.5c0,19.9-16.2,36.1-36.1,36.1s-36.1-16.2-36.1-36.1s16.2-36.1,36.1-36.1S218.6,165.6,218.6,185.5z"
	/>
<radialGradient id="SVGID_1_" cx="-751.9223" cy="729.5833" r="1" gradientTransform="matrix(34.023 17.9914 6.3767 -12.0588 21111.9102 22513.3984)" gradientUnits="userSpaceOnUse">
	<stop  offset="0" style="stop-color:#6B7680"/>
	<stop  offset="6.000000e-02" style="stop-color:#727C86"/>
	<stop  offset="0.16" style="stop-color:#889199"/>
	<stop  offset="0.25" style="stop-color:#949CA3"/>
	<stop  offset="0.32" style="stop-color:#A2A9B0"/>
	<stop  offset="0.43" style="stop-color:#B3B9BE"/>
	<stop  offset="0.48" style="stop-color:#BCC1C6"/>
	<stop  offset="0.65" style="stop-color:#D0D4D7"/>
	<stop  offset="0.81" style="stop-color:#EBEDEE"/>
	<stop  offset="0.95" style="stop-color:#FFFFFF"/>
</radialGradient>
<path class="st6" d="M214.6,205.5c-3.5,6.6-21.5,4-40.2-5.9c-18.7-9.9-31-23.3-27.5-29.9c3.5-6.6,21.5-4,40.2,5.9
	C205.7,185.5,218.1,198.8,214.6,205.5z"/>
<g class="st7">
	<path class="st8" d="M220.5,249.8c4.7-5.1-31.4-22.4-31.4-22.4l-27.5-19.7c-1-1-2.2-1.9-3.6-2.6c-0.1,0-0.2-0.1-0.2-0.1l-0.1,0v0
		c0,0,0,0,0,0h0l-0.1,0c-1.1-0.5-2.1-0.9-3.2-1.2l-32.9-12c0,0-30.8-18.6-36.2-13.2c-5.5,5.4,31.4,22.4,31.4,22.4l28.5,20.4
		c0.8,0.7,1.7,1.4,2.8,2l0.1,0.1v0c0,0,0,0,0,0h0l0.1,0c0.1,0,0.1,0.1,0.2,0.1c1.4,0.7,2.8,1.2,4.2,1.5l31.7,11.6
		C184.2,236.6,215.8,254.9,220.5,249.8L220.5,249.8z"/>
	<path class="st9" d="M221,249.3c4.6-5-31.4-22.4-31.4-22.4l-27.5-19.7c-1-1-2.2-1.9-3.6-2.6c-0.1,0-0.2-0.1-0.2-0.1l-0.1,0v0
		c0,0,0,0,0,0h0l-0.1,0c-1.1-0.5-2.1-0.9-3.2-1.2l-32.9-12c0,0-30.9-18.6-36.2-13.2c-5.4,5.4,31.4,22.4,31.4,22.4l28.5,20.4
		c0.8,0.7,1.7,1.4,2.8,2l0.1,0.1v0c0,0,0,0,0,0h0l0.1,0c0.1,0,0.2,0.1,0.2,0.1c1.4,0.7,2.8,1.2,4.2,1.5l31.7,11.6
		C184.7,236.1,216.3,254.4,221,249.3z"/>
	<path class="st10" d="M221.4,248.9c4.5-4.9-31.4-22.4-31.4-22.4l-27.5-19.7c-1-1-2.2-1.9-3.6-2.6c-0.1,0-0.2-0.1-0.2-0.1l-0.1,0v0
		c0,0,0,0,0,0h0l-0.1,0c-1-0.5-2.1-0.9-3.2-1.2l-32.9-12c0,0-31-18.5-36.2-13.2c-5.4,5.3,31.4,22.4,31.4,22.4l28.5,20.4
		c0.8,0.7,1.7,1.4,2.8,2l0.1,0.1v0c0,0,0,0,0,0h0l0.1,0c0.1,0,0.1,0.1,0.2,0.1c1.4,0.7,2.8,1.2,4.2,1.5l31.7,11.6
		C185.2,235.6,216.8,253.9,221.4,248.9L221.4,248.9z"/>
	<path class="st11" d="M221.9,248.4c4.5-4.8-31.4-22.4-31.4-22.4l-27.5-19.7c-1-1-2.2-1.9-3.6-2.6c-0.1,0-0.2-0.1-0.2-0.1l-0.1,0v0
		c0,0,0,0,0,0h0l-0.1,0c-1.1-0.5-2.1-0.9-3.2-1.2l-32.9-12c0,0-31-18.4-36.2-13.2c-5.4,5.3,31.4,22.5,31.4,22.5l28.5,20.4
		c0.8,0.7,1.7,1.4,2.8,2l0.1,0.1v0c0,0,0,0,0,0h0l0.1,0c0.1,0,0.1,0.1,0.2,0.1c1.4,0.7,2.8,1.2,4.2,1.5l31.7,11.6
		C185.7,235.2,217.3,253.4,221.9,248.4L221.9,248.4z"/>
	<path class="st12" d="M222.4,247.9c4.4-4.8-31.4-22.4-31.4-22.4l-27.5-19.7c-1-1-2.2-1.9-3.6-2.6c-0.1,0-0.2-0.1-0.2-0.1l-0.1,0v0
		c0,0,0,0,0,0h0l-0.1,0c-1.1-0.5-2.1-0.9-3.2-1.2l-32.9-12c0,0-31.1-18.3-36.2-13.2c-5.3,5.3,31.4,22.4,31.4,22.4l28.5,20.4
		c0.8,0.7,1.7,1.4,2.8,2l0.1,0.1v0c0,0,0,0,0,0h0l0.1,0c0.1,0,0.1,0.1,0.2,0.1c1.4,0.7,2.8,1.2,4.2,1.5l31.7,11.6
		C186.2,234.7,217.8,252.9,222.4,247.9L222.4,247.9z"/>
	<path class="st13" d="M222.9,247.5c4.3-4.7-31.4-22.4-31.4-22.4l-27.5-19.7c-1-1-2.2-1.9-3.6-2.6c-0.1,0-0.2-0.1-0.2-0.1l-0.1,0v0
		c0,0,0,0,0,0h0l-0.1,0c-1.1-0.5-2.1-0.9-3.2-1.2l-32.9-12c0,0-31.2-18.2-36.2-13.2c-5.3,5.3,31.4,22.4,31.4,22.4l28.5,20.4
		c0.8,0.7,1.7,1.4,2.8,2l0.1,0.1v0c0,0,0,0,0,0h0l0.1,0c0.1,0,0.2,0.1,0.2,0.1c1.4,0.7,2.8,1.2,4.2,1.5l31.7,11.6
		C186.7,234.2,218.3,252.4,222.9,247.5L222.9,247.5z"/>
	<path class="st14" d="M223.4,247c4.2-4.6-31.4-22.4-31.4-22.4l-27.5-19.7c-1-1-2.2-1.9-3.6-2.6c-0.1,0-0.2-0.1-0.2-0.1l-0.1,0v0
		c0,0,0,0,0,0h0l-0.1,0c-1.1-0.5-2.1-0.9-3.2-1.2l-32.9-12c0,0-31.3-18.1-36.2-13.2c-5.3,5.2,31.4,22.4,31.4,22.4l28.5,20.4
		c0.8,0.7,1.7,1.4,2.8,2l0.1,0.1v0c0,0,0,0,0,0h0l0.1,0c0.1,0,0.1,0.1,0.2,0.1c1.4,0.7,2.8,1.2,4.2,1.5l31.7,11.6
		C187.2,233.7,218.8,251.9,223.4,247L223.4,247z"/>
	<path class="st15" d="M223.9,246.5c4.2-4.5-31.4-22.4-31.4-22.4L165,204.4c-1-1-2.2-1.9-3.6-2.6c-0.1,0-0.2-0.1-0.2-0.1l-0.1,0v0
		c0,0,0,0,0,0h0l-0.1,0c-1.1-0.5-2.1-0.9-3.2-1.2l-32.9-12c0,0-31.4-18-36.2-13.2c-5.3,5.2,31.4,22.4,31.4,22.4l28.5,20.4
		c0.8,0.7,1.7,1.4,2.8,2l0.1,0.1v0c0,0,0,0,0,0h0l0.1,0c0.1,0,0.1,0.1,0.2,0.1c1.4,0.7,2.8,1.2,4.2,1.5l31.7,11.6
		C187.6,233.3,219.3,251.4,223.9,246.5L223.9,246.5z"/>
	<path class="st16" d="M224.4,246c4.1-4.4-31.4-22.4-31.4-22.4l-27.5-19.7c-1-1-2.2-1.9-3.6-2.6c-0.1,0-0.2-0.1-0.2-0.1l-0.1,0v0
		c0,0,0,0,0,0h0l-0.1,0c-1.1-0.5-2.1-0.9-3.2-1.2l-32.9-12c0,0-31.5-18-36.2-13.2c-5.2,5.2,31.4,22.5,31.4,22.5l28.5,20.4
		c0.8,0.7,1.7,1.4,2.8,2l0.1,0.1v0c0,0,0,0,0,0h0l0.1,0c0.1,0,0.1,0.1,0.2,0.1c1.4,0.7,2.8,1.2,4.2,1.5l31.7,11.6
		C188.1,232.8,219.9,250.9,224.4,246z"/>
	<path class="st17" d="M224.8,245.6c4-4.3-31.4-22.4-31.4-22.4L166,203.5c-1-1-2.2-1.9-3.6-2.6c-0.1,0-0.2-0.1-0.2-0.1l-0.1,0v0
		c0,0,0,0,0,0h0l-0.1,0c-1.1-0.5-2.1-0.9-3.2-1.2l-32.9-12c0,0-31.6-17.9-36.2-13.2c-5.2,5.2,31.4,22.4,31.4,22.4l28.5,20.4
		c0.8,0.7,1.7,1.4,2.8,2l0.1,0.1v0c0,0,0,0,0,0h0l0.1,0c0.1,0,0.1,0.1,0.2,0.1c1.4,0.7,2.8,1.2,4.2,1.5l31.7,11.6
		C188.6,232.3,220.4,250.4,224.8,245.6L224.8,245.6z"/>
	<path class="st18" d="M225.3,245.1c4-4.3-31.4-22.4-31.4-22.4L166.5,203c-1-1-2.2-1.9-3.6-2.6c-0.1,0-0.2-0.1-0.2-0.1l-0.1,0v0
		c0,0,0,0,0,0h0l-0.1,0c-1-0.5-2.1-0.9-3.2-1.2l-32.9-12c0,0-31.6-17.8-36.2-13.2c-5.2,5.1,31.4,22.4,31.4,22.4l28.5,20.4
		c0.8,0.7,1.7,1.4,2.8,2l0.1,0.1v0c0,0,0,0,0,0h0l0.1,0c0.1,0,0.1,0.1,0.2,0.1c1.4,0.7,2.8,1.2,4.2,1.5l31.7,11.6
		C189.1,231.8,220.9,249.9,225.3,245.1L225.3,245.1z"/>
	<path class="st19" d="M225.8,244.6c3.9-4.2-31.4-22.4-31.4-22.4L167,202.5c-1-1-2.2-1.9-3.6-2.6c-0.1,0-0.2-0.1-0.2-0.1l-0.1,0v0
		c0,0,0,0,0,0h0l-0.1,0c-1.1-0.5-2.1-0.9-3.2-1.2l-32.9-12c0,0-31.7-17.7-36.2-13.2c-5.2,5.1,31.4,22.4,31.4,22.4l28.5,20.4
		c0.8,0.7,1.7,1.4,2.8,2l0.1,0.1v0c0,0,0,0,0,0h0l0.1,0c0.1,0,0.1,0.1,0.2,0.1c1.4,0.7,2.8,1.2,4.2,1.5l31.7,11.6
		C189.6,231.4,221.4,249.4,225.8,244.6L225.8,244.6z"/>
	<path class="st20" d="M226.3,244.1c3.8-4.1-31.4-22.4-31.4-22.4L167.5,202c-1-1-2.2-1.9-3.6-2.6c-0.1,0-0.2-0.1-0.2-0.1l-0.1,0v0
		c0,0,0,0,0,0h0l-0.1,0c-1.1-0.5-2.1-0.9-3.2-1.2l-32.9-12c0,0-31.8-17.6-36.2-13.2c-5.1,5.1,31.4,22.4,31.4,22.4l28.5,20.4
		c0.8,0.7,1.7,1.4,2.8,2l0.1,0.1v0c0,0,0,0,0,0h0l0.1,0c0.1,0,0.1,0.1,0.2,0.1c1.4,0.7,2.8,1.2,4.2,1.5l31.7,11.6
		C190.1,230.9,221.9,248.9,226.3,244.1L226.3,244.1z"/>
	<path class="st21" d="M226.8,243.7c3.7-4-31.4-22.4-31.4-22.4l-27.5-19.7c-1-1-2.2-1.9-3.6-2.6c-0.1,0-0.2-0.1-0.2-0.1l-0.1,0v0
		c0,0,0,0,0,0h0l-0.1,0c-1.1-0.5-2.1-0.9-3.2-1.2l-32.9-12c0,0-31.9-17.5-36.2-13.2c-5.1,5.1,31.4,22.4,31.4,22.4l28.5,20.4
		c0.8,0.7,1.7,1.4,2.8,2l0.1,0.1v0c0,0,0,0,0,0h0l0.1,0c0.1,0,0.1,0.1,0.2,0.1c1.4,0.7,2.8,1.2,4.2,1.5l31.7,11.6
		C190.5,230.4,222.4,248.4,226.8,243.7L226.8,243.7z"/>
	<path class="st22" d="M227.3,243.2c3.7-3.9-31.4-22.4-31.4-22.4l-27.5-19.7c-1-1-2.2-1.9-3.6-2.6c-0.1,0-0.2-0.1-0.2-0.1l-0.1,0v0
		c0,0,0,0,0,0h0l-0.1,0c-1.1-0.5-2.1-0.9-3.2-1.2l-32.9-12c0,0-32-17.4-36.2-13.2c-5.1,5,31.4,22.4,31.4,22.4l28.5,20.4
		c0.8,0.7,1.7,1.4,2.8,2l0.1,0.1v0c0,0,0,0,0,0h0l0.1,0c0.1,0,0.1,0.1,0.2,0.1c1.4,0.7,2.8,1.2,4.2,1.5L191,230
		C191,230,222.9,247.9,227.3,243.2L227.3,243.2z"/>
	<path class="st23" d="M227.8,242.7c3.6-3.9-31.4-22.4-31.4-22.4l-27.5-19.7c-1-1-2.2-1.9-3.6-2.6c-0.1,0-0.2-0.1-0.2-0.1l-0.1,0v0
		c0,0,0,0,0,0h0l-0.1,0c-1.1-0.5-2.1-0.9-3.2-1.2l-32.9-12c0,0-32.1-17.4-36.2-13.2c-5,5,31.4,22.4,31.4,22.4l28.5,20.4
		c0.8,0.7,1.7,1.4,2.8,2l0.1,0.1v0c0,0,0,0,0,0h0l0.1,0c0.1,0,0.1,0.1,0.2,0.1c1.4,0.7,2.8,1.2,4.2,1.5l31.7,11.6
		C191.5,229.5,223.5,247.3,227.8,242.7L227.8,242.7z"/>
	<path class="st24" d="M228.2,242.2c3.5-3.8-31.4-22.4-31.4-22.4l-27.5-19.7c-1-1-2.2-1.9-3.6-2.6c-0.1,0-0.2-0.1-0.2-0.1l-0.1,0v0
		c0,0,0,0,0,0h0l-0.1,0c-1.1-0.5-2.1-0.9-3.2-1.2l-32.9-12c0,0-32.2-17.3-36.2-13.2c-5,5,31.4,22.4,31.4,22.4l28.5,20.4
		c0.8,0.7,1.7,1.4,2.8,2l0.1,0.1v0c0,0,0,0,0,0h0l0.1,0c0.1,0,0.1,0.1,0.2,0.1c1.4,0.7,2.8,1.2,4.2,1.5L192,229
		C192,229,224,246.8,228.2,242.2L228.2,242.2z"/>
	<path class="st25" d="M228.7,241.8c3.4-3.7-31.4-22.4-31.4-22.4l-27.5-19.7c-1-1-2.2-1.9-3.6-2.6c-0.1,0-0.2-0.1-0.2-0.1l-0.1,0v0
		c0,0,0,0,0,0h0l-0.1,0c-1.1-0.5-2.1-0.9-3.2-1.2l-32.9-12c0,0-32.3-17.2-36.2-13.2c-5,5,31.4,22.4,31.4,22.4l28.5,20.4
		c0.8,0.7,1.7,1.4,2.8,2l0.1,0.1v0c0,0,0,0,0,0h0l0.1,0c0.1,0,0.1,0.1,0.2,0.1c1.4,0.7,2.8,1.2,4.2,1.5l31.7,11.6
		C192.5,228.5,224.5,246.3,228.7,241.8L228.7,241.8z"/>
	<path class="st26" d="M229.2,241.3c3.4-3.6-31.4-22.4-31.4-22.4l-27.5-19.7c-1-1-2.2-1.9-3.6-2.6c-0.1,0-0.2-0.1-0.2-0.1l-0.1,0v0
		c0,0,0,0,0,0h0l-0.1,0c-1.1-0.5-2.1-0.9-3.2-1.2l-32.9-12c0,0-32.3-17.1-36.2-13.2c-5,4.9,31.4,22.4,31.4,22.4l28.5,20.4
		c0.8,0.7,1.7,1.4,2.8,2l0.1,0.1v0c0,0,0,0,0,0h0l0.1,0c0.1,0,0.1,0.1,0.2,0.1c1.4,0.7,2.8,1.2,4.2,1.5l31.7,11.6
		C193,228.1,225,245.8,229.2,241.3z"/>
	<path class="st27" d="M229.7,240.8c3.3-3.5-31.4-22.4-31.4-22.4l-27.5-19.7c-1-1-2.2-1.9-3.6-2.6c-0.1,0-0.2-0.1-0.2-0.1l-0.1,0v0
		c0,0,0,0,0,0h0l-0.1,0c-1.1-0.5-2.1-0.9-3.2-1.2l-32.9-12c0,0-32.4-17-36.2-13.2c-4.9,4.9,31.4,22.4,31.4,22.4l28.5,20.4
		c0.8,0.7,1.7,1.4,2.8,2l0.1,0.1v0c0,0,0,0,0,0h0l0.1,0c0.1,0,0.1,0.1,0.2,0.1c1.4,0.7,2.8,1.2,4.2,1.5l31.7,11.6
		C193.5,227.6,225.5,245.3,229.7,240.8L229.7,240.8z"/>
	<path class="st28" d="M230.2,240.4c3.2-3.4-31.4-22.4-31.4-22.4l-27.5-19.7c-1-1-2.2-1.9-3.6-2.6c-0.1,0-0.2-0.1-0.2-0.1l-0.1,0v0
		c0,0,0,0,0,0h0l-0.1,0c-1.1-0.5-2.1-0.9-3.2-1.2l-32.9-12c0,0-32.5-16.9-36.2-13.2c-4.9,4.9,31.4,22.5,31.4,22.5l28.5,20.4
		c0.8,0.7,1.7,1.4,2.8,2l0.1,0.1v0c0,0,0,0,0,0h0l0.1,0c0.1,0,0.1,0.1,0.2,0.1c1.4,0.7,2.8,1.2,4.2,1.5l31.7,11.6
		C194,227.1,226,244.8,230.2,240.4L230.2,240.4z"/>
	<path class="st29" d="M230.7,239.9c3.1-3.4-31.4-22.4-31.4-22.4l-27.5-19.7c-1-1-2.2-1.9-3.6-2.6c-0.1,0-0.2-0.1-0.2-0.1l-0.1,0v0
		c0,0,0,0,0,0h0l-0.1,0c-1-0.5-2.1-0.9-3.2-1.2l-32.9-12c0,0-32.6-16.8-36.2-13.2c-4.9,4.8,31.4,22.4,31.4,22.4l28.5,20.4
		c0.8,0.7,1.7,1.4,2.8,2l0.1,0.1v0c0,0,0,0,0,0h0l0.1,0c0.1,0,0.2,0.1,0.2,0.1c1.4,0.7,2.8,1.2,4.2,1.5l31.7,11.6
		C194.4,226.6,226.5,244.3,230.7,239.9L230.7,239.9z"/>
	<path class="st30" d="M231.2,239.4c3.1-3.3-31.4-22.4-31.4-22.4l-27.5-19.7c-1-1-2.2-1.9-3.6-2.6c-0.1,0-0.2-0.1-0.2-0.1l-0.1,0v0
		c0,0,0,0,0,0h0l-0.1,0c-1.1-0.5-2.1-0.9-3.2-1.2l-32.9-12c0,0-32.7-16.8-36.2-13.2c-4.9,4.8,31.4,22.4,31.4,22.4l28.5,20.4
		c0.8,0.7,1.7,1.4,2.8,2l0.1,0.1v0c0,0,0,0,0,0h0l0.1,0c0.1,0,0.1,0.1,0.2,0.1c1.4,0.7,2.8,1.2,4.2,1.5l31.7,11.6
		C194.9,226.2,227,243.8,231.2,239.4L231.2,239.4z"/>
	<path class="st31" d="M231.7,238.9c3-3.2-31.4-22.4-31.4-22.4l-27.5-19.7c-1-1-2.2-1.9-3.6-2.6c-0.1,0-0.2-0.1-0.2-0.1l-0.1,0v0
		c0,0,0,0,0,0h0l-0.1,0c-1.1-0.5-2.1-0.9-3.2-1.2l-32.9-12c0,0-32.8-16.7-36.2-13.2c-4.8,4.8,31.4,22.4,31.4,22.4l28.5,20.4
		c0.8,0.7,1.7,1.4,2.8,2l0.1,0.1v0c0,0,0,0,0,0h0l0.1,0c0.1,0,0.1,0.1,0.2,0.1c1.4,0.7,2.8,1.2,4.2,1.5l31.7,11.6
		C195.4,225.7,227.6,243.3,231.7,238.9L231.7,238.9z"/>
	<path class="st32" d="M232.1,238.5c2.9-3.1-31.4-22.4-31.4-22.4l-27.5-19.7c-1-1-2.2-1.9-3.6-2.6c-0.1,0-0.2-0.1-0.2-0.1l-0.1,0v0
		c0,0,0,0,0,0h0l-0.1,0c-1.1-0.5-2.1-0.9-3.2-1.2l-32.9-12c0,0-32.9-16.6-36.2-13.2c-4.8,4.8,31.4,22.5,31.4,22.5l28.5,20.4
		c0.8,0.7,1.7,1.4,2.8,2l0.1,0.1v0c0,0,0,0,0,0h0l0.1,0c0.1,0,0.1,0.1,0.2,0.1c1.4,0.7,2.8,1.2,4.2,1.5l31.7,11.6
		C195.9,225.2,228.1,242.8,232.1,238.5L232.1,238.5z"/>
	<path class="st33" d="M232.6,238c2.8-3-31.4-22.4-31.4-22.4l-27.5-19.7c-1-1-2.2-1.9-3.6-2.6c-0.1,0-0.2-0.1-0.2-0.1l-0.1,0v0
		c0,0,0,0,0,0h0l-0.1,0c-1.1-0.5-2.1-0.9-3.2-1.2l-32.9-12c0,0-33-16.5-36.2-13.2c-4.8,4.7,31.4,22.4,31.4,22.4l28.5,20.4
		c0.8,0.7,1.7,1.4,2.8,2l0.1,0.1v0c0,0,0,0,0,0h0l0.1,0c0.1,0,0.1,0.1,0.2,0.1c1.4,0.7,2.8,1.2,4.2,1.5l31.7,11.6
		C196.4,224.8,228.6,242.3,232.6,238L232.6,238z"/>
	<path class="st34" d="M233.1,237.5c2.8-3-31.4-22.4-31.4-22.4l-27.5-19.7c-1-1-2.2-1.9-3.6-2.6c-0.1,0-0.2-0.1-0.2-0.1l-0.1,0v0
		c0,0,0,0,0,0h0l-0.1,0c-1.1-0.5-2.1-0.9-3.2-1.2l-32.9-12c0,0-33-16.4-36.2-13.2c-4.8,4.7,31.4,22.4,31.4,22.4l28.5,20.4
		c0.8,0.7,1.7,1.4,2.8,2l0.1,0.1v0c0,0,0,0,0,0h0l0.1,0c0.1,0,0.2,0.1,0.2,0.1c1.4,0.7,2.8,1.2,4.2,1.5l31.7,11.6
		C196.9,224.3,229.1,241.8,233.1,237.5L233.1,237.5z"/>
	<path class="st35" d="M233.6,237c2.7-2.9-31.4-22.4-31.4-22.4l-27.5-19.7c-1-1-2.2-1.9-3.6-2.6c-0.1,0-0.2-0.1-0.2-0.1l-0.1,0v0
		c0,0,0,0,0,0h0l-0.1,0c-1.1-0.5-2.1-0.9-3.2-1.2l-32.9-12c0,0-33.1-16.3-36.2-13.2c-4.7,4.7,31.4,22.4,31.4,22.4l28.5,20.4
		c0.8,0.7,1.7,1.4,2.8,2l0.1,0.1v0c0,0,0,0,0,0h0l0.1,0c0.1,0,0.2,0.1,0.2,0.1c1.4,0.7,2.8,1.2,4.2,1.5l31.7,11.6
		C197.4,223.8,229.6,241.3,233.6,237L233.6,237z"/>
	<path class="st36" d="M234.1,236.6c2.6-2.8-31.4-22.4-31.4-22.4l-27.5-19.7c-1-1-2.2-1.9-3.6-2.6c-0.1,0-0.2-0.1-0.2-0.1l-0.1,0v0
		c0,0,0,0,0,0h0l-0.1,0c-1.1-0.5-2.1-0.9-3.2-1.2l-32.9-12c0,0-33.2-16.2-36.2-13.2c-4.7,4.7,31.4,22.4,31.4,22.4l28.5,20.4
		c0.8,0.7,1.7,1.4,2.8,2l0.1,0.1v0c0,0,0,0,0,0h0l0.1,0c0.1,0,0.2,0.1,0.2,0.1c1.4,0.7,2.8,1.2,4.2,1.5l31.7,11.6
		C197.8,223.3,230.1,240.8,234.1,236.6L234.1,236.6z"/>
	<path class="st37" d="M234.6,236.1c2.5-2.7-31.4-22.4-31.4-22.4L175.7,194c-1-1-2.2-1.9-3.6-2.6c-0.1,0-0.2-0.1-0.2-0.1l-0.1,0v0
		c0,0,0,0,0,0h0l-0.1-0.1c-1.1-0.5-2.1-0.9-3.2-1.2l-32.9-12c0,0-33.3-16.1-36.2-13.2c-4.7,4.6,31.4,22.4,31.4,22.4l28.5,20.4
		c0.8,0.7,1.7,1.4,2.8,2l0.1,0.1v0c0,0,0,0,0,0h0l0.1,0c0.1,0,0.1,0.1,0.2,0.1c1.4,0.7,2.8,1.2,4.2,1.5l31.7,11.6
		C198.3,222.9,230.6,240.3,234.6,236.1L234.6,236.1z"/>
	<path class="st38" d="M235.1,235.6c2.5-2.6-31.4-22.4-31.4-22.4l-27.5-19.7c-1-1-2.2-1.9-3.6-2.6c-0.1,0-0.2-0.1-0.2-0.1l-0.1,0v0
		c0,0,0,0,0,0h0l-0.1,0c-1.1-0.5-2.1-0.9-3.2-1.2l-32.9-12c0,0-33.4-16.1-36.2-13.2c-4.6,4.6,31.4,22.4,31.4,22.4l28.5,20.4
		c0.8,0.7,1.7,1.4,2.8,2l0.1,0.1v0c0,0,0,0,0,0h0l0.1,0c0.1,0,0.1,0.1,0.2,0.1c1.4,0.7,2.8,1.2,4.2,1.5l31.7,11.6
		C198.8,222.4,231.1,239.8,235.1,235.6L235.1,235.6z"/>
	<path class="st39" d="M235.5,235.1c2.4-2.5-31.4-22.4-31.4-22.4L176.7,193c-1-1-2.2-1.9-3.6-2.6c-0.1,0-0.2-0.1-0.2-0.1l-0.1,0v0
		c0,0,0,0,0,0h0l-0.1-0.1c-1.1-0.5-2.1-0.9-3.2-1.2l-32.9-12c0,0-33.5-16-36.2-13.2c-4.6,4.6,31.4,22.4,31.4,22.4l28.5,20.4
		c0.8,0.7,1.7,1.4,2.8,2l0.1,0.1v0c0,0,0,0,0,0h0l0.1,0c0.1,0,0.1,0.1,0.2,0.1c1.4,0.7,2.8,1.2,4.2,1.5l31.7,11.6
		C199.3,221.9,231.6,239.3,235.5,235.1L235.5,235.1z"/>
	<path class="st40" d="M236,234.7c2.3-2.5-31.4-22.4-31.4-22.4l-27.5-19.7c-1-1-2.2-1.9-3.6-2.6c-0.1,0-0.2-0.1-0.2-0.1l-0.1,0v0
		c0,0,0,0,0,0h0l-0.1,0c-1.1-0.5-2.1-0.9-3.2-1.2l-32.9-12c0,0-33.6-15.9-36.2-13.2c-4.6,4.6,31.4,22.4,31.4,22.4l28.5,20.4
		c0.8,0.7,1.7,1.4,2.8,2l0.1,0.1v0c0,0,0,0,0,0h0l0.1,0c0.1,0,0.1,0.1,0.2,0.1c1.4,0.7,2.8,1.2,4.2,1.5l31.7,11.6
		C199.8,221.4,232.2,238.8,236,234.7z"/>
	<path class="st41" d="M236.5,234.2c2.2-2.4-31.4-22.4-31.4-22.4l-27.5-19.7c-1-1-2.2-1.9-3.6-2.6c-0.1,0-0.2-0.1-0.2-0.1l-0.1,0v0
		c0,0,0,0,0,0h0l-0.1,0c-1.1-0.5-2.1-0.9-3.2-1.2l-32.9-12c0,0-33.6-15.8-36.2-13.2c-4.6,4.5,31.4,22.4,31.4,22.4l28.5,20.4
		c0.8,0.7,1.7,1.4,2.8,2l0.1,0.1v0c0,0,0,0,0,0h0l0.1,0c0.1,0,0.1,0.1,0.2,0.1c1.4,0.7,2.8,1.2,4.2,1.5l31.7,11.6
		C200.3,221,232.7,238.3,236.5,234.2L236.5,234.2z"/>
	<path class="st42" d="M237,233.7c2.2-2.3-31.4-22.4-31.4-22.4l-27.5-19.7c-1-1-2.2-1.9-3.6-2.6c-0.1,0-0.2-0.1-0.2-0.1l-0.1,0v0
		c0,0,0,0,0,0h0l-0.1,0c-1.1-0.5-2.1-0.9-3.2-1.2l-32.9-12c0,0-33.7-15.7-36.2-13.2c-4.5,4.5,31.4,22.4,31.4,22.4l28.5,20.4
		c0.8,0.7,1.7,1.4,2.8,2l0.1,0.1v0c0,0,0,0,0,0h0l0.1,0c0.1,0,0.1,0.1,0.2,0.1c1.4,0.7,2.8,1.2,4.2,1.5l31.7,11.6
		C200.8,220.5,233.2,237.8,237,233.7z"/>
	<path class="st43" d="M237.5,233.3c2.1-2.2-31.4-22.4-31.4-22.4l-27.5-19.7c-1-1-2.2-1.9-3.6-2.6c-0.1,0-0.2-0.1-0.2-0.1l-0.1,0v0
		c0,0,0,0,0,0h0l-0.1,0c-1.1-0.5-2.1-0.9-3.2-1.2l-32.9-12c0,0-33.8-15.6-36.2-13.2c-4.5,4.5,31.4,22.4,31.4,22.4l28.5,20.4
		c0.8,0.7,1.7,1.4,2.8,2l0.1,0.1v0c0,0,0,0,0,0h0l0.1,0c0.1,0,0.1,0.1,0.2,0.1c1.4,0.7,2.8,1.2,4.2,1.5l31.7,11.6
		C201.2,220,233.7,237.3,237.5,233.3L237.5,233.3z"/>
	<path class="st44" d="M238,232.8c2-2.1-31.4-22.4-31.4-22.4l-27.5-19.7c-1-1-2.2-1.9-3.6-2.6c-0.1,0-0.2-0.1-0.2-0.1l-0.1,0v0
		c0,0,0,0,0,0h0l-0.1,0c-1.1-0.5-2.1-0.9-3.2-1.2l-32.9-12c0,0-33.9-15.6-36.2-13.2c-4.5,4.5,31.4,22.4,31.4,22.4l28.5,20.4
		c0.8,0.7,1.7,1.4,2.8,2l0.1,0.1v0c0,0,0,0,0,0h0l0.1,0c0.1,0,0.1,0.1,0.2,0.1c1.4,0.7,2.8,1.2,4.2,1.5l31.7,11.6
		C201.7,219.5,234.2,236.8,238,232.8L238,232.8z"/>
	<path class="st45" d="M238.5,232.3c1.9-2.1-31.4-22.4-31.4-22.4l-27.5-19.7c-1-1-2.2-1.9-3.6-2.6c-0.1,0-0.2-0.1-0.2-0.1l-0.1,0v0
		c0,0,0,0,0,0h0l-0.1,0c-1.1-0.5-2.1-0.9-3.2-1.2l-32.9-12c0,0-34-15.5-36.2-13.2c-4.5,4.4,31.4,22.4,31.4,22.4l28.5,20.4
		c0.8,0.7,1.7,1.4,2.8,2l0.1,0.1v0c0,0,0,0,0,0h0l0.1,0c0.1,0,0.1,0.1,0.2,0.1c1.4,0.7,2.8,1.2,4.2,1.5l31.7,11.6
		C202.2,219.1,234.7,236.3,238.5,232.3L238.5,232.3z"/>
	<path class="st46" d="M238.9,231.8c1.9-2-31.4-22.4-31.4-22.4l-27.5-19.7c-1-1-2.2-1.9-3.6-2.6c-0.1,0-0.2-0.1-0.2-0.1l-0.1,0v0
		c0,0,0,0,0,0h0l-0.1,0c-1.1-0.5-2.1-0.9-3.2-1.2l-32.9-12c0,0-34.1-15.4-36.2-13.2c-4.4,4.4,31.4,22.4,31.4,22.4l28.5,20.4
		c0.8,0.7,1.7,1.4,2.8,2l0.1,0.1v0c0,0,0,0,0,0h0l0.1,0c0.1,0,0.1,0.1,0.2,0.1c1.4,0.7,2.8,1.2,4.2,1.5l31.7,11.6
		C202.7,218.6,235.2,235.8,238.9,231.8z"/>
	<path class="st47" d="M239.4,231.4c1.8-1.9-31.4-22.4-31.4-22.4l-27.5-19.7c-1-1-2.2-1.9-3.6-2.6c-0.1,0-0.2-0.1-0.2-0.1l-0.1,0v0
		c0,0,0,0,0,0h0l-0.1-0.1c-1.1-0.5-2.1-0.9-3.2-1.2l-32.9-12c0,0-34.2-15.3-36.2-13.2c-4.4,4.4,31.4,22.4,31.4,22.4l28.5,20.4
		c0.8,0.7,1.7,1.4,2.8,2l0.1,0.1v0c0,0,0,0,0,0h0l0.1,0c0.1,0,0.1,0.1,0.2,0.1c1.4,0.7,2.8,1.2,4.2,1.5l31.7,11.6
		C203.2,218.1,235.7,235.2,239.4,231.4L239.4,231.4z"/>
	<path class="st48" d="M239.9,230.9c1.7-1.8-31.4-22.4-31.4-22.4l-27.5-19.7c-1-1-2.2-1.9-3.6-2.6c-0.1,0-0.2-0.1-0.2-0.1l-0.1,0v0
		c0,0,0,0,0,0h0l-0.1,0c-1.1-0.5-2.1-0.9-3.2-1.2l-32.9-12c0,0-34.3-15.2-36.2-13.2c-4.4,4.3,31.4,22.4,31.4,22.4l28.5,20.4
		c0.8,0.7,1.7,1.4,2.8,2l0.1,0.1v0c0,0,0,0,0,0h0l0.1,0c0.1,0,0.1,0.1,0.2,0.1c1.4,0.7,2.8,1.2,4.2,1.5l31.7,11.6
		C203.7,217.6,236.2,234.8,239.9,230.9L239.9,230.9z"/>
	<path class="st49" d="M240.4,230.4c1.6-1.7-31.4-22.4-31.4-22.4l-27.5-19.7c-1-1-2.2-1.9-3.6-2.6c-0.1,0-0.2-0.1-0.2-0.1l-0.1,0v0
		c0,0,0,0,0,0h0l-0.1,0c-1.1-0.5-2.1-0.9-3.2-1.2l-32.9-12c0,0-34.3-15.1-36.2-13.2c-4.3,4.3,31.4,22.4,31.4,22.4l28.5,20.4
		c0.8,0.7,1.7,1.4,2.8,2l0.1,0.1v0c0,0,0,0,0,0h0l0.1,0c0.1,0,0.2,0.1,0.2,0.1c1.4,0.7,2.8,1.2,4.2,1.5l31.7,11.6
		C204.2,217.2,236.8,234.2,240.4,230.4L240.4,230.4z"/>
	<path class="st50" d="M240.9,229.9c1.6-1.6-31.4-22.4-31.4-22.4L182,187.8c-1-1-2.2-1.9-3.6-2.6c-0.1,0-0.2-0.1-0.2-0.1l-0.1,0v0
		c0,0,0,0,0,0h0l-0.1,0c-1.1-0.5-2.1-0.9-3.2-1.2l-32.9-12c0,0-34.4-15-36.2-13.2C101.3,162.9,137,181,137,181l28.5,20.4
		c0.8,0.7,1.7,1.4,2.8,2l0.1,0.1v0c0,0,0,0,0,0h0l0.1,0c0.1,0,0.1,0.1,0.2,0.1c1.4,0.7,2.8,1.2,4.2,1.5l31.7,11.6
		C204.6,216.7,237.3,233.8,240.9,229.9L240.9,229.9z"/>
	<path class="st51" d="M241.4,229.5c1.5-1.6-31.4-22.4-31.4-22.4l-27.5-19.7c-1-1-2.2-1.9-3.6-2.6c-0.1,0-0.2-0.1-0.2-0.1l-0.1,0v0
		c0,0,0,0,0,0h0l-0.1,0c-1.1-0.5-2.1-0.9-3.2-1.2l-32.9-12c0,0-34.5-14.9-36.2-13.2c-4.3,4.3,31.4,22.4,31.4,22.4l28.5,20.4
		c0.8,0.7,1.7,1.4,2.8,2l0.1,0.1v0c0,0,0,0,0,0h0l0.1,0c0.1,0,0.1,0.1,0.2,0.1c1.4,0.7,2.8,1.2,4.2,1.5l31.7,11.6
		C205.1,216.2,237.8,233.2,241.4,229.5L241.4,229.5z"/>
	<path class="st52" d="M241.9,229c1.4-1.5-31.4-22.4-31.4-22.4L183,186.9c-1-1-2.2-1.9-3.6-2.6c-0.1,0-0.2-0.1-0.2-0.1l-0.1,0v0
		c0,0,0,0,0,0h0l-0.1,0c-1.1-0.5-2.1-0.9-3.2-1.2l-32.9-12c0,0-34.6-14.9-36.2-13.2c-4.3,4.2,31.4,22.4,31.4,22.4l28.5,20.4
		c0.8,0.7,1.7,1.4,2.8,2l0.1,0.1v0c0,0,0,0,0,0h0l0.1,0c0.1,0,0.1,0.1,0.2,0.1c1.4,0.7,2.8,1.2,4.2,1.5l31.7,11.6
		C205.6,215.8,238.3,232.7,241.9,229L241.9,229z"/>
	<path class="st53" d="M242.3,228.5c1.3-1.4-31.4-22.4-31.4-22.4l-27.5-19.7c-1-1-2.2-1.9-3.6-2.6c-0.1,0-0.2-0.1-0.2-0.1l-0.1,0v0
		c0,0,0,0,0,0h0l-0.1,0c-1.1-0.5-2.1-0.9-3.2-1.2l-32.9-12c0,0-34.7-14.8-36.2-13.2c-4.2,4.2,31.4,22.4,31.4,22.4L167,200
		c0.8,0.7,1.7,1.4,2.8,2l0.1,0.1v0c0,0,0,0,0,0h0l0.1,0c0.1,0,0.2,0.1,0.2,0.1c1.4,0.7,2.8,1.2,4.2,1.5l31.7,11.6
		C206.1,215.3,238.8,232.2,242.3,228.5L242.3,228.5z"/>
	<path class="st54" d="M242.8,228.1c1.3-1.3-31.4-22.4-31.4-22.4L184,186c-1-1-2.2-1.9-3.6-2.6c-0.1,0-0.2-0.1-0.2-0.1l-0.1,0v0
		c0,0,0,0,0,0h0l-0.1-0.1c-1.1-0.5-2.1-0.9-3.2-1.2l-32.9-12c0,0-34.8-14.7-36.2-13.2c-4.2,4.2,31.4,22.4,31.4,22.4l28.5,20.4
		c0.8,0.7,1.7,1.4,2.8,2l0.1,0.1v0c0,0,0,0,0,0h0l0.1,0c0.1,0,0.2,0.1,0.2,0.1c1.4,0.7,2.8,1.2,4.2,1.5l31.7,11.6
		C206.6,214.8,239.3,231.7,242.8,228.1L242.8,228.1z"/>
	<path class="st55" d="M243.3,227.6c1.2-1.2-31.4-22.4-31.4-22.4l-27.5-19.7c-1-1-2.2-1.9-3.6-2.6c-0.1,0-0.2-0.1-0.2-0.1l-0.1,0v0
		c0,0,0,0,0,0h0l-0.1,0c-1.1-0.5-2.1-0.9-3.2-1.2l-32.9-12c0,0-34.9-14.6-36.2-13.2c-4.2,4.2,31.4,22.4,31.4,22.4l28.5,20.4
		c0.8,0.7,1.7,1.4,2.8,2l0.1,0.1v0c0,0,0,0,0,0h0l0.1,0c0.1,0,0.2,0.1,0.2,0.1c1.4,0.7,2.8,1.2,4.2,1.5l31.7,11.6
		C207.1,214.3,239.8,231.2,243.3,227.6z"/>
	<path class="st56" d="M243.8,227.1c1.1-1.2-31.4-22.4-31.4-22.4L184.9,185c-1-1-2.2-1.9-3.6-2.6c-0.1,0-0.2-0.1-0.2-0.1l-0.1,0v0
		c0,0,0,0,0,0h0l-0.1,0c-1.1-0.5-2.1-0.9-3.2-1.2l-32.9-12c0,0-34.9-14.5-36.2-13.2c-4.2,4.1,31.4,22.4,31.4,22.4l28.5,20.4
		c0.8,0.7,1.7,1.4,2.8,2l0.1,0.1v0c0,0,0,0,0,0h0l0.1,0c0.1,0,0.1,0.1,0.2,0.1c1.4,0.7,2.8,1.2,4.2,1.5l31.7,11.6
		C207.6,213.9,240.3,230.7,243.8,227.1L243.8,227.1z"/>
	<path class="st57" d="M244.3,226.6c1-1.1-31.4-22.4-31.4-22.4l-27.5-19.7c-1-1-2.2-1.9-3.6-2.6c-0.1,0-0.2-0.1-0.2-0.1l-0.1,0v0
		c0,0,0,0,0,0h0l-0.1,0c-1.1-0.5-2.1-0.9-3.2-1.2l-32.9-12c0,0-35-14.4-36.2-13.2c-4.1,4.1,31.4,22.4,31.4,22.4l28.5,20.4
		c0.8,0.7,1.7,1.4,2.8,2l0.1,0.1v0c0,0,0,0,0,0h0l0.1,0c0.1,0,0.2,0.1,0.2,0.1c1.4,0.7,2.8,1.2,4.2,1.5l31.7,11.6
		C208,213.4,240.8,230.2,244.3,226.6L244.3,226.6z"/>
	<path class="st58" d="M244.8,226.2c1-1-31.4-22.4-31.4-22.4l-27.5-19.7c-1-1-2.2-1.9-3.6-2.6c-0.1,0-0.2-0.1-0.2-0.1l-0.1,0v0
		c0,0,0,0,0,0h0l-0.1,0c-1.1-0.5-2.1-0.9-3.2-1.2l-32.9-12c0,0-35.1-14.3-36.2-13.2c-4.1,4.1,31.4,22.4,31.4,22.4l28.5,20.4
		c0.8,0.7,1.7,1.4,2.8,2l0.1,0.1v0c0,0,0,0,0,0h0l0.1,0c0.1,0,0.2,0.1,0.2,0.1c1.4,0.7,2.8,1.2,4.2,1.5l31.7,11.6
		C208.5,212.9,241.4,229.7,244.8,226.2L244.8,226.2z"/>
	<path class="st59" d="M245.3,225.7c0.9-0.9-31.4-22.4-31.4-22.4l-27.5-19.7c-1-1-2.2-1.9-3.6-2.6c-0.1,0-0.2-0.1-0.2-0.1l-0.1,0v0
		c0,0,0,0,0,0h0l-0.1,0c-1.1-0.5-2.1-0.9-3.2-1.2l-32.9-12c0,0-35.2-14.3-36.2-13.2c-4.1,4.1,31.4,22.4,31.4,22.4l28.5,20.4
		c0.8,0.7,1.7,1.4,2.8,2l0.1,0.1v0c0,0,0,0,0,0h0l0.1,0c0.1,0,0.1,0.1,0.2,0.1c1.4,0.7,2.8,1.2,4.2,1.5l31.7,11.6
		C209,212.5,241.9,229.2,245.3,225.7L245.3,225.7z"/>
	<path class="st60" d="M245.7,225.2c0.8-0.8-31.4-22.4-31.4-22.4l-27.5-19.7c-1-1-2.2-1.9-3.6-2.6c-0.1,0-0.2-0.1-0.2-0.1l-0.1,0v0
		c0,0,0,0,0,0h0l-0.1,0c-1.1-0.5-2.1-0.9-3.2-1.2l-32.9-12c0,0-35.3-14.2-36.2-13.2c-4,4,31.4,22.4,31.4,22.4l28.5,20.4
		c0.8,0.7,1.7,1.4,2.8,2l0.1,0.1v0c0,0,0,0,0,0h0l0.1,0c0.1,0,0.1,0.1,0.2,0.1c1.4,0.7,2.8,1.2,4.2,1.5l31.7,11.6
		C209.5,212,242.4,228.7,245.7,225.2L245.7,225.2z"/>
	<path class="st61" d="M246.2,224.7c0.7-0.8-31.4-22.4-31.4-22.4l-27.5-19.7c-1-1-2.2-1.9-3.6-2.6c-0.1,0-0.2-0.1-0.2-0.1l-0.1,0v0
		c0,0,0,0,0,0h0l-0.1-0.1c-1.1-0.5-2.1-0.9-3.2-1.2l-32.9-12c0,0-35.4-14.1-36.2-13.2c-4,4,31.4,22.4,31.4,22.4l28.5,20.4
		c0.8,0.7,1.7,1.4,2.8,2l0.1,0.1v0c0,0,0,0,0,0h0l0.1,0c0.1,0,0.2,0.1,0.2,0.1c1.4,0.7,2.8,1.2,4.2,1.5l31.7,11.6
		C210,211.5,242.9,228.2,246.2,224.7L246.2,224.7z"/>
	<path class="st62" d="M246.7,224.3c0.7-0.7-31.4-22.4-31.4-22.4l-27.5-19.7c-1-1-2.2-1.9-3.6-2.6c-0.1,0-0.2-0.1-0.2-0.1l-0.1,0v0
		c0,0,0,0,0,0h0l-0.1,0c-1.1-0.5-2.1-0.9-3.2-1.2l-32.9-12c0,0-35.5-14-36.2-13.2c-4,4,31.4,22.4,31.4,22.4l28.5,20.4
		c0.8,0.7,1.7,1.4,2.8,2l0.1,0.1v0c0,0,0,0,0,0h0l0.1,0c0.1,0,0.2,0.1,0.2,0.1c1.4,0.7,2.8,1.2,4.2,1.5l31.7,11.6
		C210.5,211,243.4,227.7,246.7,224.3L246.7,224.3z"/>
	<path class="st63" d="M247.2,223.8c0.6-0.6-31.4-22.4-31.4-22.4l-27.5-19.7c-1-1-2.2-1.9-3.6-2.6c-0.1,0-0.2-0.1-0.2-0.1l-0.1,0v0
		c0,0,0,0,0,0h0l-0.1,0c-1.1-0.5-2.1-0.9-3.2-1.2l-32.9-12c0,0-35.6-13.9-36.2-13.2c-4,4,31.4,22.4,31.4,22.4l28.5,20.4
		c0.8,0.7,1.7,1.4,2.8,2l0.1,0.1v0c0,0,0,0,0,0h0l0.1,0c0.1,0,0.1,0.1,0.2,0.1c1.4,0.7,2.8,1.2,4.2,1.5l31.7,11.6
		C211,210.6,243.9,227.2,247.2,223.8L247.2,223.8z"/>
	<path class="st64" d="M247.7,223.3c0.5-0.5-31.4-22.4-31.4-22.4l-27.5-19.7c-1-1-2.2-1.9-3.6-2.6c-0.1,0-0.2-0.1-0.2-0.1l-0.1,0v0
		c0,0,0,0,0,0h0l-0.1,0c-1.1-0.5-2.1-0.9-3.2-1.2l-32.9-12c0,0-35.6-13.8-36.2-13.2c-3.9,3.9,31.4,22.4,31.4,22.4l28.5,20.4
		c0.8,0.7,1.7,1.4,2.8,2l0.1,0.1v0c0,0,0,0,0,0h0l0.1,0c0.1,0,0.2,0.1,0.2,0.1c1.4,0.7,2.8,1.2,4.2,1.5l31.7,11.6
		C211.4,210.1,244.4,226.7,247.7,223.3L247.7,223.3z"/>
	<path class="st65" d="M248.2,222.9c0.4-0.4-31.4-22.4-31.4-22.4l-27.5-19.7c-1-1-2.2-1.9-3.6-2.6c-0.1,0-0.2-0.1-0.2-0.1l-0.1,0v0
		c0,0,0,0,0,0h0l-0.1,0c-1.1-0.5-2.1-0.9-3.2-1.2l-32.9-12c0,0-35.7-13.7-36.2-13.2c-3.9,3.9,31.4,22.4,31.4,22.4l28.5,20.4
		c0.8,0.7,1.7,1.4,2.8,2l0.1,0.1v0c0,0,0,0,0,0h0l0.1,0c0.1,0,0.1,0.1,0.2,0.1c1.4,0.7,2.8,1.2,4.2,1.5l31.7,11.6
		C211.9,209.6,244.9,226.2,248.2,222.9L248.2,222.9z"/>
	<path class="st66" d="M248.7,222.4c0.4-0.4-31.4-22.4-31.4-22.4l-27.5-19.7c-1-1-2.2-1.9-3.6-2.6c-0.1,0-0.2-0.1-0.2-0.1l-0.1,0v0
		c0,0,0,0,0,0h0l-0.1,0c-1.1-0.5-2.1-0.9-3.2-1.2l-32.9-12c0,0-35.8-13.7-36.2-13.2c-3.9,3.9,31.4,22.4,31.4,22.4l28.5,20.4
		c0.8,0.7,1.7,1.4,2.8,2l0.1,0.1v0c0,0,0,0,0,0h0l0.1,0c0.1,0,0.1,0.1,0.2,0.1c1.4,0.7,2.8,1.2,4.2,1.5l31.7,11.6
		C212.4,209.1,245.4,225.7,248.7,222.4L248.7,222.4z"/>
	<path class="st67" d="M249.1,221.9c0.3-0.3-31.4-22.4-31.4-22.4l-27.5-19.7c-1-1-2.2-1.9-3.6-2.6c-0.1,0-0.2-0.1-0.2-0.1l-0.1,0v0
		c0,0,0,0,0,0h0l-0.1,0c-1-0.5-2.1-0.9-3.2-1.2l-32.9-12c0,0-35.9-13.6-36.2-13.2c-3.9,3.8,31.4,22.4,31.4,22.4l28.5,20.4
		c0.8,0.7,1.7,1.4,2.8,2l0.1,0.1v0c0,0,0,0,0,0h0l0.1,0c0.1,0,0.1,0.1,0.2,0.1c1.4,0.7,2.8,1.2,4.2,1.5l31.7,11.6
		C212.9,208.7,245.9,225.2,249.1,221.9L249.1,221.9z"/>
	<path class="st68" d="M249.6,221.4c0.2-0.2-31.4-22.4-31.4-22.4l-27.5-19.7c-1-1-2.2-1.9-3.6-2.6c-0.1,0-0.2-0.1-0.2-0.1l-0.1,0v0
		c0,0,0,0,0,0h0l-0.1-0.1c-1.1-0.5-2.1-0.9-3.2-1.2l-32.9-12c0,0-36-13.5-36.2-13.2c-3.8,3.8,31.4,22.4,31.4,22.4l28.5,20.4
		c0.8,0.7,1.7,1.4,2.8,2l0.1,0.1v0c0,0,0,0,0,0h0l0.1,0c0.1,0,0.2,0.1,0.2,0.1c1.4,0.7,2.8,1.2,4.2,1.5l31.7,11.6
		C213.4,208.2,246.4,224.6,249.6,221.4L249.6,221.4z"/>
	<path class="st69" d="M250.1,221c0.1-0.1-31.4-22.4-31.4-22.4l-27.5-19.7c-1-1-2.2-1.9-3.6-2.6c-0.1,0-0.2-0.1-0.2-0.1l-0.1,0v0
		c0,0,0,0,0,0h0l-0.1,0c-1.1-0.5-2.1-0.9-3.2-1.2l-32.9-12c0,0-36.1-13.4-36.2-13.2c-3.8,3.8,31.4,22.4,31.4,22.4l28.5,20.4
		c0.8,0.7,1.7,1.4,2.8,2l0.1,0.1v0c0,0,0,0,0,0h0l0.1,0c0.1,0,0.1,0.1,0.2,0.1c1.4,0.7,2.8,1.2,4.2,1.5l31.7,11.6
		C213.9,207.7,246.9,224.1,250.1,221L250.1,221z"/>
</g>
<linearGradient id="SVGID_00000171704531126570059220000005970164168488624561_" gradientUnits="userSpaceOnUse" x1="155.8861" y1="222.6067" x2="144.0351" y2="189.2066" gradientTransform="matrix(1 0 0 -1 0 372)">
	<stop  offset="0" style="stop-color:#1D6CBD"/>
	<stop  offset="1" style="stop-color:#003366"/>
</linearGradient>
<path style="display:none;fill:url(#SVGID_00000171704531126570059220000005970164168488624561_);" d="M171.9,179.7l15.5-3.6
	l-36.2-13.2l-36.2-13.2L171.9,179.7z"/>
<linearGradient id="SVGID_00000124858038358657150190000011644044257005894284_" gradientUnits="userSpaceOnUse" x1="157.5045" y1="218.3461" x2="132.5095" y2="177.4911" gradientTransform="matrix(1 0 0 -1 0 372)">
	<stop  offset="0" style="stop-color:#1D6CBD"/>
	<stop  offset="1" style="stop-color:#003366"/>
</linearGradient>
<path style="display:none;fill:url(#SVGID_00000124858038358657150190000011644044257005894284_);" d="M171.9,179.7l5.8,14.8
	L146.3,172l-31.4-22.4L171.9,179.7z"/>
<path class="st72" d="M193.1,190.9l-15.5,3.6l36.2,13.2l36.2,13.2L193.1,190.9z"/>
<path class="st73" d="M193.1,190.9l-5.8-14.8l31.4,22.4l31.4,22.5L193.1,190.9z"/>
<linearGradient id="SVGID_00000131335599733552513200000004092811616920349347_" gradientUnits="userSpaceOnUse" x1="170.4489" y1="186.5785" x2="195.1378" y2="186.5785" gradientTransform="matrix(1 0 0 -1 0 372)">
	<stop  offset="0" style="stop-color:#D0D0D0"/>
	<stop  offset="0.34" style="stop-color:#E1E1E1"/>
	<stop  offset="0.81" style="stop-color:#FFFFFF"/>
</linearGradient>
<path style="display:none;fill:url(#SVGID_00000131335599733552513200000004092811616920349347_);" d="M187.7,176.2
	c6.3,3.3,9.2,10.1,6.5,15.2c-2.7,5.1-9.9,6.5-16.2,3.2c-6.3-3.3-9.2-10.1-6.5-15.2C174.1,174.3,181.4,172.9,187.7,176.2L187.7,176.2
	z"/>
<linearGradient id="SVGID_00000047753791334004388750000006538817195328748943_" gradientUnits="userSpaceOnUse" x1="173.3455" y1="186.571" x2="192.2605" y2="186.571" gradientTransform="matrix(1 0 0 -1 0 372)">
	<stop  offset="0.19" style="stop-color:#FFFFFF"/>
	<stop  offset="0.66" style="stop-color:#E1E1E1"/>
	<stop  offset="1" style="stop-color:#D0D0D0"/>
</linearGradient>
<path style="display:none;fill:url(#SVGID_00000047753791334004388750000006538817195328748943_);" d="M184.9,193.5
	c-1.9,0-3.8-0.5-5.6-1.4c-2.4-1.3-4.3-3.2-5.3-5.5c-0.9-2.1-0.9-4.1,0-5.8c1.1-2.2,3.6-3.5,6.7-3.5c1.9,0,3.8,0.5,5.6,1.4
	c2.4,1.3,4.3,3.2,5.3,5.5c0.9,2.1,0.9,4.1,0,5.8C190.4,192.2,187.9,193.5,184.9,193.5L184.9,193.5z"/>
</svg>
