<svg width="167" height="168" viewBox="0 0 167 168" fill="none" xmlns="http://www.w3.org/2000/svg">
<path d="M136.663 34.1028L131.145 42.3083C134.901 46.6134 138.108 51.4096 140.592 56.6103L149.318 52.5942C146.082 45.7755 141.777 39.5346 136.663 34.1028Z" fill="#043464"/>
<path d="M52.4989 17.9519C45.5357 21.2457 39.1504 25.5796 33.603 30.8092L41.8086 36.3277C46.2003 32.485 51.1121 29.2201 56.4572 26.7064L52.4989 17.9519Z" fill="#043464"/>
<path d="M90.6353 11.4215L92.5711 21.3317C98.2341 22.1407 103.637 23.701 108.693 25.8968L112.652 17.1423C105.804 14.1374 98.4074 12.1727 90.6353 11.4215Z" fill="#043464"/>
<path d="M146.168 93.0729C145.33 98.8514 143.741 104.37 141.458 109.542L150.184 113.558C153.275 106.595 155.298 99.0537 156.078 91.1371L146.168 93.0729Z" fill="#043464"/>
<path d="M110.543 141.266L114.502 150.021C121.465 146.727 127.85 142.393 133.398 137.163L125.192 131.645C120.8 135.488 115.86 138.752 110.543 141.266Z" fill="#043464"/>
<path d="M58.2767 142.104L54.3184 150.858C61.1659 153.863 68.5914 155.828 76.3636 156.579L74.4277 146.669C68.7647 145.86 63.3618 144.3 58.2767 142.104Z" fill="#043464"/>
<path d="M17.6538 115.378C20.9187 122.197 25.1948 128.438 30.3377 133.87L35.8563 125.664C32.1002 121.359 28.8931 116.563 26.4083 111.362L17.6538 115.378Z" fill="#043464"/>
<path d="M25.5411 58.4299L16.8155 54.4138C13.724 61.377 11.7015 68.918 10.9214 76.8346L20.8316 74.8988C21.6406 69.1203 23.2586 63.6017 25.5411 58.4299Z" fill="#043464"/>
<path d="M114.502 17.9519L110.543 26.7064C115.889 29.2201 120.8 32.485 125.192 36.3277L133.398 30.8092C127.85 25.6085 121.465 21.2457 114.502 17.9519Z" fill="#1D6CBD"/>
<path d="M30.3087 34.1028C25.1947 39.5635 20.8896 45.7755 17.6248 52.5942L26.3504 56.6103C28.864 51.4096 32.0423 46.5845 35.7983 42.3083L30.3087 34.1028Z" fill="#1D6CBD"/>
<path d="M58.2767 25.8968C63.333 23.701 68.7648 22.1407 74.3989 21.3317L76.3347 11.4215C68.5626 12.1727 61.166 14.1374 54.2896 17.1423L58.2767 25.8968Z" fill="#1D6CBD"/>
<path d="M156.078 76.8633C155.298 68.9467 153.275 61.4057 150.184 54.4425L141.458 58.4586C143.741 63.6304 145.359 69.1489 146.168 74.9275L156.078 76.8633Z" fill="#1D6CBD"/>
<path d="M131.145 125.693L136.663 133.898C141.777 128.438 146.082 122.226 149.347 115.407L140.621 111.391C138.108 116.592 134.901 121.388 131.145 125.693Z" fill="#1D6CBD"/>
<path d="M92.5711 146.669L90.6353 156.579C98.4074 155.828 105.804 153.863 112.68 150.858L108.722 142.104C103.637 144.3 98.2341 145.86 92.5711 146.669Z" fill="#1D6CBD"/>
<path d="M33.603 137.163C39.1504 142.364 45.5357 146.727 52.4989 150.021L56.4572 141.266C51.1121 138.752 46.2003 135.488 41.8086 131.645L33.603 137.163Z" fill="#1D6CBD"/>
<path d="M10.9214 91.1371C11.7015 99.0537 13.724 106.595 16.8155 113.558L25.5411 109.542C23.2586 104.37 21.6406 98.8514 20.8316 93.0729L10.9214 91.1371Z" fill="#1D6CBD"/>
<path d="M83.5009 83.9997L135.075 32.426L83.3564 67.1841L83.5009 83.9997Z" fill="#043464"/>
<path d="M83.5 83.9997L135.074 32.426L100.287 84.1442L83.5 83.9997Z" fill="#1D6CBD"/>
<path d="M83.4999 83.9999L31.9263 135.574L83.6443 100.787L83.4999 83.9999Z" fill="#043464"/>
<path d="M83.4999 83.9994L31.9263 135.573L66.6843 83.855L83.4999 83.9994Z" fill="#1D6CBD"/>
<path d="M83.5 83.9993L135.074 135.573L100.287 83.8549L83.5 83.9993Z" fill="#043464"/>
<path d="M83.5009 83.9999L135.075 135.574L83.3564 100.787L83.5009 83.9999Z" fill="#1D6CBD"/>
<path d="M83.4999 83.9997L31.9263 32.426L66.6843 84.1442L83.4999 83.9997Z" fill="#043464"/>
<path d="M83.4999 83.9997L31.9263 32.426L83.6443 67.1841L83.4999 83.9997Z" fill="#1D6CBD"/>
<path d="M83.499 84.0003V0.5L69.7749 70.5073L83.499 84.0003Z" fill="#043464"/>
<path d="M83.5 84.0003V0.5L97.2241 70.5073L83.5 84.0003Z" fill="#1D6CBD"/>
<path d="M83.5 84V167.5L97.2241 97.493L83.5 84Z" fill="#043464"/>
<path d="M83.499 84V167.5L69.7749 97.493L83.499 84Z" fill="#1D6CBD"/>
<path d="M83.5 84.0005H167L96.9929 70.2764L83.5 84.0005Z" fill="#043464"/>
<path d="M83.5 83.9999H167L96.9929 97.724L83.5 83.9999Z" fill="#1D6CBD"/>
<path d="M83.5001 83.9999H0L70.0072 97.724L83.5001 83.9999Z" fill="#043464"/>
<path d="M83.5001 84.0005H0L70.0072 70.2764L83.5001 84.0005Z" fill="#1D6CBD"/>
</svg>
