<svg width="136" height="72" viewBox="0 0 136 72" fill="none" xmlns="http://www.w3.org/2000/svg">
<path d="M56.982 30.0705L72.4781 26.4781L36.2391 13.2351L0 0L56.982 30.0705Z" fill="url(#paint0_linear_1020_18886)"/>
<path d="M56.982 30.0705L62.7566 44.897L31.3783 22.4446L0 0L56.982 30.0705Z" fill="url(#paint1_linear_1020_18886)"/>
<path d="M78.2525 41.2968L62.7563 44.897L98.9954 58.1322L135.242 71.3752L78.2525 41.2968Z" fill="#759FC6"/>
<path d="M78.2526 41.2968L72.478 26.4781L103.856 48.9227L135.242 71.3752L78.2526 41.2968Z" fill="#90C6F7"/>
<path d="M72.7775 26.6279C79.0405 29.9366 81.9397 36.7433 79.2532 41.8246C76.5668 46.9139 69.3111 48.3555 63.0481 45.0468C56.785 41.738 53.8859 34.9392 56.5645 29.85C59.2509 24.7608 66.5066 23.3191 72.7696 26.6279H72.7775Z" fill="url(#paint2_linear_1020_18886)"/>
<path d="M70.0043 43.9438C68.1214 43.9438 66.1834 43.4474 64.403 42.5021C61.9608 41.2101 60.0779 39.2563 59.1168 36.9953C58.2423 34.9391 58.2423 32.883 59.1325 31.2049C60.2749 29.0385 62.7801 27.7465 65.8289 27.7465C67.7117 27.7465 69.6497 28.2428 71.4381 29.1881C73.8803 30.4801 75.7631 32.4339 76.7242 34.6949C77.5987 36.7511 77.5987 38.8073 76.7085 40.4853C75.5662 42.6518 73.0609 43.9438 70.0121 43.9438H70.0043Z" fill="url(#paint3_linear_1020_18886)"/>
<defs>
<linearGradient id="paint0_linear_1020_18886" x1="59.0938" y1="6.22763" x2="47.2431" y2="39.6282" gradientUnits="userSpaceOnUse">
<stop stop-color="#1D6CBD"/>
<stop offset="1" stop-color="#003366"/>
</linearGradient>
<linearGradient id="paint1_linear_1020_18886" x1="51.1675" y1="9.2982" x2="26.1724" y2="50.1527" gradientUnits="userSpaceOnUse">
<stop stop-color="#1D6CBD"/>
<stop offset="1" stop-color="#003366"/>
</linearGradient>
<linearGradient id="paint2_linear_1020_18886" x1="55.5718" y1="35.8452" x2="80.2616" y2="35.8452" gradientUnits="userSpaceOnUse">
<stop stop-color="#D0D0D0"/>
<stop offset="0.34" stop-color="#E1E1E1"/>
<stop offset="0.81" stop-color="white"/>
</linearGradient>
<linearGradient id="paint3_linear_1020_18886" x1="58.4629" y1="35.8451" x2="77.3702" y2="35.8451" gradientUnits="userSpaceOnUse">
<stop offset="0.19" stop-color="white"/>
<stop offset="0.66" stop-color="#E1E1E1"/>
<stop offset="1" stop-color="#D0D0D0"/>
</linearGradient>
</defs>
</svg>
