<svg width="67" height="53" viewBox="0 0 67 53" fill="none" xmlns="http://www.w3.org/2000/svg">
<path d="M61.1202 10.3765L61.122 10.3761C63.5284 9.92124 65.2592 7.87253 65.2592 5.37114C65.2592 3.85532 64.5831 2.41678 63.4574 1.43235C62.5504 0.594886 61.4181 0.216346 60.2182 0.216346L60.2131 0.216346C59.9973 0.216346 59.6922 0.216335 59.384 0.293109C53.4438 1.3293 48.1634 3.99211 43.6913 8.13146L43.6907 8.13194C39.1706 12.3558 36.0012 19.217 35.0578 26.3828C34.1144 33.549 35.3941 41.0462 39.8071 46.5337C42.906 50.402 48.0648 52.5542 53.2931 52.1832C58.0834 51.8858 62.1435 49.5066 64.5065 45.7096L64.5065 45.7096L64.5073 45.7084C67.0911 41.4658 67.0919 36.2532 64.5068 32.0828C61.9935 27.984 57.3377 25.7505 52.4642 26.2716L52.4635 26.2717C51.8071 26.3452 50.8868 26.4359 49.9967 26.3905C49.0993 26.3448 48.268 26.1621 47.7609 25.719L47.7602 25.7185C47.295 25.3164 47.0822 24.7048 47.0822 23.8447C47.0822 20.0025 48.8748 16.8794 52.6405 14.1779C55.401 12.2004 58.2274 10.8869 61.1202 10.3765ZM60.9211 8.60921L60.9205 8.60932C57.7583 9.20246 54.6719 10.5367 51.7351 12.6833C47.6165 15.6495 45.4682 19.3713 45.4682 23.7711C45.4682 25.123 45.8413 26.1982 46.6822 26.9705C47.6039 27.8976 49.0451 28.1163 50.4362 28.1163C50.805 28.1163 51.1732 28.0978 51.537 28.0794L51.5387 28.0794C51.9043 28.0609 52.2656 28.0427 52.6262 28.0427L52.635 28.0427L52.6437 28.0417C56.9663 27.5333 60.8513 29.42 63.0834 33.0497L63.0834 33.0497L63.0845 33.0515C65.389 36.6819 65.3899 41.1094 63.0839 44.8149C60.9947 48.1561 57.4634 50.1939 53.2004 50.4855C48.4989 50.777 43.8763 48.8799 41.1362 45.4629L41.1362 45.4629C37.7717 41.2684 36.1154 34.6854 36.6154 27.9314C37.1151 21.18 39.7678 14.2821 44.99 9.4557L44.9908 9.45491C49.2035 5.50053 54.2141 3.01117 59.8072 1.98589L59.8072 1.98605L59.8142 1.98445C60.7104 1.77592 61.6856 2.05233 62.4587 2.69006C63.2238 3.32122 63.6452 4.30743 63.6452 5.29755C63.6452 6.9186 62.4552 8.32798 60.9211 8.60921ZM26.8832 10.3765L26.885 10.3761C29.2914 9.92123 31.0222 7.87253 31.0222 5.37114C31.0222 3.85534 30.3462 2.41681 29.2205 1.43239C28.3135 0.594891 27.1811 0.216343 25.9812 0.216343L25.9733 0.216343C25.688 0.216336 25.3822 0.216328 25.074 0.29311C19.1341 1.32926 13.8534 3.99198 9.45368 8.132C4.93354 12.3559 1.76418 19.217 0.820811 26.3828C-0.122641 33.5491 1.15717 41.0464 5.57026 46.5339C8.66917 50.4021 13.8279 52.5542 19.0561 52.1832C23.8464 51.8858 27.9065 49.5066 30.2695 45.7096L30.2703 45.7084C32.8541 41.4658 32.8549 36.2532 30.2698 32.0828C27.7565 27.984 23.1007 25.7505 18.2272 26.2716L18.2265 26.2717C17.5701 26.3452 16.6498 26.4359 15.7597 26.3905C14.8622 26.3448 14.031 26.1621 13.5239 25.719L13.5232 25.7184C13.058 25.3164 12.8452 24.7048 12.8452 23.8447C12.8452 20.0025 14.6378 16.8794 18.4035 14.1779C21.164 12.2004 23.9904 10.8869 26.8832 10.3765ZM26.6111 8.6092L26.6105 8.60931C23.4483 9.20246 20.3619 10.5367 17.4251 12.6833C13.3064 15.6495 11.1582 19.3713 11.1582 23.7711C11.1582 25.123 11.5313 26.1982 12.3722 26.9705C13.2939 27.8976 14.7351 28.1163 16.1262 28.1163C16.4947 28.1163 16.8809 28.0978 17.2628 28.0795L17.2648 28.0794C17.6488 28.0609 18.0284 28.0427 18.3892 28.0427L18.398 28.0427L18.4067 28.0417C22.7293 27.5333 26.6143 29.42 28.8464 33.0497L28.8475 33.0515C31.1521 36.682 31.1529 41.1095 28.8468 44.8151C26.7575 48.1562 23.2263 50.1939 18.9634 50.4855C14.2618 50.777 9.63934 48.8799 6.89918 45.4629L6.89867 45.4623C3.49809 41.2678 1.82369 34.6851 2.31451 27.9312C2.80514 21.18 5.45777 14.2821 10.68 9.4557L10.6808 9.45491C14.8935 5.50053 19.9041 3.01117 25.4972 1.98589L25.4972 1.98605L25.5042 1.98444C26.4004 1.77591 27.3756 2.05233 28.1487 2.69006C28.9138 3.32122 29.3352 4.30742 29.3352 5.29754C29.3352 6.9186 28.1452 8.32798 26.6111 8.6092Z" fill="#759FC6" stroke="#759FC6" stroke-width="0.3"/>
</svg>
